<?xml version="1.0" encoding="utf-8"?>
<!-- Generator: Adobe Illustrator 23.0.1, SVG Export Plug-In . SVG Version: 6.00 Build 0)  -->
<svg version="1.1" id="Layer_1" xmlns="http://www.w3.org/2000/svg" xmlns:xlink="http://www.w3.org/1999/xlink" x="0px" y="0px"
	 viewBox="0 0 512 512" style="enable-background:new 0 0 512 512;" xml:space="preserve">
<g>
	<g id="_x32_Iji0t.tif">
		<g>
			<path d="M214.3,424.3c-0.9-0.4-1.8-0.2-2.7-0.2c-7.5-0.1-15-0.6-22.2-2.9c-1.6-0.5-3.1-1.1-4.4-2.2c-2.2-1.9-1.8-5.4,0.6-6.9
				c2-1.3,4.3-1.7,6.6-2.1c6.2-0.9,12.5-1.7,18.8-1.3c2.8,0.2,4.7,0,6.3-2.8c1.7-3.1,5.2-4.9,8.3-6.5c-1.5-9.2-2.9-18.4-4.3-27.6
				c-1.3-8.4-2.8-16.8-4.1-25.2c-1-6.3-1.8-12.7-2.4-19c-0.6-6.3-1.6-12.5-2.4-18.7c-0.7-5.5-1.4-11.1-2.1-16.6
				c-0.7-5.7-1.3-11.4-1.9-17.2c-0.5-4.5-0.9-9.1-1.4-13.7c-0.5-4.8-1.2-9.5-1.8-14.3c-0.1-1.1-0.4-4.7-0.4-4.7l-1.7-2.6
				c-4.8-5.6-8.3-9.7-12.3-15.9c-5.9-9.3-10-19.4-13.8-29.7c-4.9-13.5-8.7-27.3-11-41.4c-1.4-8.6-2.5-17.3-2.9-26.1
				c-0.1-2.3,0-4.6-0.3-6.9c-0.1-7.7-0.2-15.2-0.3-22.9c0.3-2.9,0.4-5.8,0.7-8.6c0.3-2.7,0.5-5.5,2.5-7.6c0.8-0.9,2-1.3,3.2-1.3
				c6.7,0.2,13.3-0.1,20-0.4c10.4-0.4,20.8-0.8,31.2-1c10.1-0.2,20.3-0.7,30.4-0.5c0.7,0,1.4,0.1,2.1,0.3c1.5,0.3,2.2,1.2,2.2,2.8
				c0,20.3,0,40.6-0.1,60.9c0,6.5-0.3,13-0.8,19.5c-0.7,8-2.1,15.9-3.8,23.8c-2.1,9.3-4.5,18.5-8.3,27.3
				c-4.2,9.7-9.4,18.9-16.1,27.2c-0.4,0.5-0.7,1.2-0.7,1.9c-0.1,5.6,0.5,11.1,0.8,16.7c0.2,5.1,0.8,10.1,1.2,15.1
				c0.2,2.3,0.2,4.6,0.3,6.9c0.3,7.4,0.9,14.7,1.1,22.1c0.5,16.2,0.4,32.5,0.7,48.7c0.1,7.7,0,15.3,0.6,23c0.5,6.6,1,13.2,1.6,19.8
				c0.1,1.6-0.1,3.1,0.3,4.7c0.2,0.6,0.3,1.1,1.2,1.4c3.3,1.3,5.9,3.9,6.6,7.3c0.3,1.6,0.5,2.1,1.5,2.1c3,0.2,5.9,0.4,8.9,0.6
				c4.3,0.4,8.6,0.6,12.4,3c2.6,1.7,2.6,4.8,0,6.5c-0.9,0.5-1.8,1-2.8,1.3c-4.6,1.4-9.4,1.8-14.1,2.8c-5.1,1.1-10.4,0.9-15.6,0.9
				c-0.3,0-0.6,0.1-0.9,0.2C223.8,424.3,219.1,424.3,214.3,424.3z M249.5,117.9c0.2-6.5-0.3-14.3,0.3-22.1c0.2-3.3,0.1-6.6,0-9.9
				c-0.1-3-0.4-3.1-3.4-3.2c-7.7,0-15.4,0.5-23.1,0.5c-11.5,0.1-23.1,0.6-34.6,1c-6,0.2-12,0.6-18,0.4c-1.2,0-1.5,0.4-1.8,1.5
				c-0.6,3-0.8,6.1-0.8,9.2c-0.1,13.3-0.2,26.5,1.2,39.8c0.8,7.8,1.8,15.6,3.4,23.3c3.2,15.7,8.1,30.8,14.1,45.6
				c5.9,14.5,15.2,26.6,25.7,37.9c0.6,0.7,1.1,0.8,1.9,0.2c2.3-1.8,4.5-3.5,6.4-5.7c6.7-8,11.9-17,15.9-26.6
				c6.9-16.5,10.5-33.9,12.1-51.7c0.6-6.1,0.6-12.3,0.7-18.4C249.6,133,249.5,126.1,249.5,117.9z M227.7,385.7
				c0-5-4.1-44.5-4.3-49.5c-0.4-11.7,0.1-23.3-0.4-35c-0.2-4.9-0.3-9.8-0.7-14.7c-0.7-7.8-0.8-15.6-1.5-23.4c-0.4-4-0.6-8-0.8-12.1
				c-0.1-1.8-0.2-3.7-0.3-5.9c-1.6,1.7-4.6,4.9-5.1,5.3c-0.8,0.5-4-3.6-4.7-3.4C213.2,281.3,222.8,351.6,227.7,385.7z M190.9,415.8
				c8.4,4.2,51.7,3.9,63.9,0c-2.9-0.7-5.7-0.8-8.5-1c-3.5-0.2-7.1-0.8-10.7-0.4c-4.3,0.5-8.6,0.9-12.9,0.9c-4.7,0-9.5-0.3-14.2,0
				c-2.9,0.2-5.7,0.1-8.6,0.4c-1.8,0.2-3.4,1-5-0.6c-0.1-0.1-0.4-0.1-0.6,0C193.3,415.3,192.2,415.5,190.9,415.8z M221.8,409
				c0.6,0.4,1.2,0.2,1.7,0.2c2.9,0,5.8-0.5,8.7-0.3c0.5,0,1.2,0.3,1.5-0.2c0.3-0.5-0.3-0.9-0.6-1.4c-2.7-3.8-3.9-4.1-7.7-1.4
				C224,406.8,222.7,407.6,221.8,409z"/>
			<path d="M203.4,61c-3.5,0-6-1.7-7-4.7c-3.8-11.1,16.9-13.7,13.9,0.1C209.7,59.4,207.1,61,203.4,61z M203.3,55.6
				c1,0,1.9,0,1.8-1.2c0-1.4-1.2-1.8-2.2-2c-1-0.1-1.4,0.9-1.4,1.8C201.5,55.5,202.5,55.6,203.3,55.6z"/>
			<path d="M221,25.5c2.9,0,4.2,1.1,5.4,3.8c0.8,1.8,1.6,3.5,1,5.5c-1,3.5-4.5,5.6-8.2,4.7c-3.3-0.7-5.8-4.4-5.3-7.7
				C214.6,27.9,217.4,25.4,221,25.5z M220.9,34.2c0.7-0.1,1.5-0.4,1.3-1.2c-0.3-0.8,0.1-2.3-1.3-2.4c-1,0-1.6,0.9-1.6,1.9
				C219.3,33.5,219.7,34.2,220.9,34.2z"/>
			<path d="M233.7,50.1c4.6-0.1,7.1,2.7,7.2,6.5c0.1,3.4-3,6.1-6.6,6.1c-4.2,0-6.5-2.1-6.5-5.9C227.8,52.4,229.8,50.1,233.7,50.1z"
				/>
			<path d="M237.5,20.8c-2.6,0-5-2.1-5.2-4.7c-0.2-2.8,1.7-5,4.5-5.2c0.4,0,0.8-0.1,1.3-0.2c2.5-0.5,3.9,0.7,3.8,3.2
				c-0.1,1.4-0.3,2.9-0.7,4.3C240.7,20,239.5,20.8,237.5,20.8z"/>
			<path d="M219.5,124.4c7.1-0.2,13.7,0.2,20.4,1.3c1.6,0.3,3.2,0.7,4.6,1.5c1.8,1,2.6,2.6,2.5,4.7c-0.4,8.3-1.6,16.5-2.7,24.7
				c-1.5,11.1-3.5,22-6.2,32.8c-2.3,9.2-5.2,18.1-10,26.4c-1.7,2.9-3.6,5.5-6.2,7.6c-6.1,4.8-12.3,3.9-17.8-1.1
				c-5.4-4.8-8.8-11-11.7-17.5c-7.5-16.3-12-33.6-16-51.1c-1.2-5.4-2.2-10.8-3.3-16.1c-0.3-1.3-1.3-2.3-1.7-3.6
				c-0.6-2.1-0.3-3.1,1.7-4c2.2-1,4.5-1.4,6.9-1.7c6.7-0.9,13.4-1.8,20.2-2.5C206.6,124.7,213.2,124,219.5,124.4z M213.5,220.8
				c1.6,0,2.8-0.5,4-1.3c2.9-1.9,4.8-4.8,6.4-7.8c4.2-7.4,6.6-15.5,8.8-23.7c2.4-9.3,4.2-18.7,5.6-28.2c1-6.7,2-13.4,2.6-20.2
				c0.2-2.2,0.2-2.2-1.9-1.5c-7.9,2.4-16.1,2.7-24.3,2.9c-11.6,0.3-23.2,0.1-34.7-1.9c-1.2-0.2-1.2,0.1-1,1.2
				c2.4,11.5,5,23,8.2,34.2c3,10.2,6.3,20.3,11.1,29.8c2.5,5,5.2,9.8,9.4,13.6C209.4,219.5,211.3,220.7,213.5,220.8z M240.8,131.2
				c-20.7-3.6-40.8-0.7-61,1.9c0.4,0.5,0.8,0.5,1.2,0.6c4.7,1.1,9.5,1.4,14.3,1.6c7.4,0.2,14.8,0.7,22.2,0.2
				c5.1-0.4,10.2-0.5,15.3-1.4C235.4,133.5,238.1,132.9,240.8,131.2z"/>
			<path d="M234.2,103.8c-4.8-0.1-8.5-3.3-8.4-7.3c0.1-3.7,3.4-6.5,7.7-6.5c3.4,0,6.7,4,6.6,8.1C240,101.5,237.6,103.8,234.2,103.8z
				"/>
		</g>
	</g>
	<g id="_x32_Iji0t.tif_1_">
		<g>
			<path d="M281.9,501.4c-0.3-0.1-0.6-0.2-0.9-0.2c-6.6,0.1-13.2-0.6-19.8-1.6c-3.3-0.5-6.7-1-10-2c-1-0.3-1.9-0.7-2.8-1.3
				c-2.6-1.7-2.6-4.8,0-6.5c3.8-2.5,8.1-2.6,12.4-3c2.9-0.3,5.9-0.5,8.9-0.6c0.6,0,0.9-0.3,1.1-0.9c1.4-3.8,3.8-6.7,7.3-8.8
				c0.5-0.3,0.7-0.7,0.8-1.3c0.4-1.5,0.1-3.1,0.3-4.7c0.5-6.6,1.1-13.2,1.6-19.8c0.6-7.6,0.4-15.3,0.6-23
				c0.3-16.2,0.2-32.5,0.7-48.7c0.2-7.4,0.8-14.8,1.1-22.1c0.1-2.3,0.1-4.6,0.3-6.9c0.4-5,1-10.1,1.2-15.1
				c0.2-5.4,0.8-10.9,0.8-16.3c0-0.9-0.2-1.5-0.7-2.2c-6.8-8.2-11.9-17.4-16.2-27.2c-4.1-9.5-6.7-19.5-8.8-29.5
				c-1.7-7.9-2.9-15.9-3.5-23.9c-0.4-5.7-0.6-11.4-0.6-17.1c-0.1-20.3-0.1-40.6-0.1-60.9c0-1.5,0.7-2.4,2.2-2.8
				c0.7-0.1,1.4-0.3,2.1-0.3c10.2-0.1,20.3,0.4,30.4,0.5c10.4,0.2,20.8,0.6,31.2,1c6.7,0.2,13.4,0.6,20.1,0.4c1.3,0,2.4,0.5,3.2,1.5
				c1.9,2.1,2,4.8,2.3,7.4c0.3,2.2,0.4,4.5,0.6,6.8c0,8,0,16,0,24c-0.5,2.6-0.3,5.2-0.5,7.7c-0.4,7.8-1.3,15.5-2.5,23.1
				c-2.3,14.8-6,29.2-11,43.3c-3.8,10.7-8,21.2-14.2,30.8c-4,6.3-8.8,11.9-13.6,17.5c-0.7,0.8-1,1.5-0.7,2.6c0.3,1,0,2.1-0.1,3.2
				c-0.6,4.7-1.2,9.5-1.8,14.3c-0.5,4.5-0.9,9.1-1.4,13.7c-0.6,5.7-1.2,11.4-1.9,17.2c-0.6,5.6-1.4,11.1-2.1,16.6
				c-0.8,6.2-1.8,12.5-2.4,18.7c-0.6,6.4-1.5,12.7-2.4,19c-1.3,8.4-2.8,16.8-4.1,25.2c-1.4,8.8-2.7,17.5-4.1,26.3
				c-0.2,1,0.1,1.5,0.9,1.9c2.8,1.5,5.6,3.2,7.1,5.9c1.6,2.8,3.5,3,6.3,2.8c6.3-0.4,12.6,0.3,18.8,1.3c2.4,0.4,4.8,0.8,6.9,2.2
				c2.5,1.7,2.7,4.6,0.5,6.6c-1.3,1.2-2.9,1.8-4.6,2.4c-7.2,2.3-14.7,2.8-22.2,2.9c-0.9,0-1.8-0.2-2.7,0.2
				C291.4,501.4,286.7,501.4,281.9,501.4z M261,216.9c0.1,6.1,0.1,12.3,0.7,18.4c1.6,17.8,5.2,35.2,12.1,51.7
				c4,9.6,9.3,18.5,15.9,26.6c1.8,2.2,4.1,4,6.4,5.7c0.8,0.6,1.3,0.4,1.9-0.2c10.6-11.3,19.8-23.4,25.7-37.9
				c6-14.8,10.9-30,14.1-45.6c1.6-7.7,2.6-15.5,3.4-23.3c1.4-13.2,1.3-26.5,1.2-39.8c0-3-0.2-6.1-0.8-9.2c-0.2-1.1-0.6-1.6-1.8-1.5
				c-6,0.2-12-0.1-18-0.4c-11.5-0.4-23.1-0.9-34.6-1c-7.7-0.1-15.4-0.5-23.1-0.5c-3,0-3.2,0.2-3.4,3.2c-0.1,3.3-0.2,6.6,0,9.9
				c0.5,7.8,0.1,15.7,0.3,22.1C261,203.2,260.9,210.1,261,216.9z M299.4,325.8c-0.7-0.2-1,1.2-1.8,0.7c-0.6-0.4-1-1-1.6-1.3
				c-1.7-0.8-3.5-1.3-5.1-3c-0.2,2.2-0.3,4.1-0.3,5.9c-0.1,4-0.4,8.1-0.8,12.1c-0.7,7.8-0.8,15.6-1.5,23.4
				c-0.4,4.9-0.5,9.8-0.7,14.7c-0.6,11.7-0.1,23.3-0.4,35c-0.2,5-0.1,10-0.1,15.1C291.8,394.3,296,360.1,299.4,325.8z M316.1,492.2
				c-0.2,0-0.5-0.1-0.6,0c-1.5,1.6-3.2,0.8-5,0.6c-2.8-0.4-5.7-0.2-8.6-0.4c-4.7-0.3-9.5,0-14.2,0c-4.3,0-8.6-0.3-12.9-0.9
				c-3.5-0.5-7.1,0.2-10.7,0.4c-2.8,0.1-5.6,0.2-8.5,1c12.2,3.9,55.5,4.1,63.9,0C318.3,492.6,317.2,492.4,316.1,492.2z M285.1,483
				c-3.9-2.6-5-2.4-7.7,1.4c-0.3,0.4-0.9,0.8-0.6,1.4c0.3,0.5,1,0.3,1.5,0.2c2.9-0.2,5.8,0.4,8.7,0.3c0.5,0,1.1,0.2,1.7-0.2
				C287.8,484.7,286.4,483.8,285.1,483z"/>
			<path d="M300.1,133.5c-0.7-3.2-0.3-5.9,3.3-8.1c0.9-0.6,1.8-1.2,2.6-1.9c1.5-1.1,2.9-0.9,4.1,0.6c0.4,0.5,0.8,1,1.3,1.4
				c2.5,1.9,3.5,5.1,2.6,7.9c-1,3-3.5,4.7-7,4.7C303.4,138.1,300.8,136.5,300.1,133.5z M309,131.3c0-0.9-0.4-1.9-1.4-1.8
				c-1,0.1-2.1,0.6-2.2,2c0,1.2,0.8,1.2,1.8,1.2C308,132.6,309,132.5,309,131.3z"/>
			<path d="M296.5,109c0.5,3.3-2,6.9-5.3,7.7c-3.7,0.8-7.3-1.3-8.2-4.7c-0.6-2,0.2-3.7,1-5.5c1.3-2.7,2.6-3.8,5.4-3.8
				C293.1,102.5,295.9,105,296.5,109z M291.2,109.7c0-1-0.6-1.9-1.6-1.9c-1.4,0-1,1.5-1.3,2.4c-0.3,0.8,0.6,1.1,1.3,1.2
				C290.7,111.3,291.2,110.6,291.2,109.7z"/>
			<path d="M276.7,127.2c-4.6-0.1-7.1,2.7-7.2,6.5c-0.1,3.4,3,6.1,6.6,6.1c4.2,0,6.5-2.1,6.5-5.9
				C282.7,129.5,280.7,127.2,276.7,127.2z"/>
			<path d="M314,102.1c2.6,0,5-2.1,5.2-4.7c0.2-2.8-1.7-5-4.5-5.2c-0.4,0-0.8-0.1-1.3-0.2c-2.5-0.5-3.9,0.7-3.8,3.2
				c0.1,1.4,0.3,2.9,0.7,4.3C310.8,101.2,312.1,102,314,102.1z"/>
			<path d="M310.5,202.5c6.7,0.7,13.5,1.6,20.2,2.5c2.4,0.3,4.7,0.7,6.9,1.7c2,0.9,2.3,2,1.7,4c-0.4,1.3-1.4,2.3-1.7,3.6
				c-1.1,5.4-2.1,10.8-3.3,16.1c-3.9,17.5-8.4,34.8-16,51.1c-3,6.4-6.4,12.6-11.7,17.5c-5.6,5-11.7,6-17.8,1.1
				c-2.6-2.1-4.6-4.7-6.2-7.6c-4.8-8.2-7.7-17.2-10-26.4c-2.8-10.8-4.8-21.7-6.2-32.8c-1.1-8.2-2.3-16.4-2.7-24.7
				c-0.1-2.1,0.7-3.7,2.5-4.7c1.4-0.8,3-1.2,4.6-1.5c6.6-1.1,13.3-1.5,20.4-1.3C297.2,201.1,303.9,201.8,310.5,202.5z M302.8,295
				c4.2-3.8,6.9-8.7,9.4-13.6c4.7-9.5,8.1-19.6,11.1-29.8c3.3-11.3,5.9-22.7,8.2-34.2c0.2-1,0.2-1.4-1-1.2
				c-11.5,2-23.1,2.2-34.7,1.9c-8.2-0.2-16.4-0.5-24.3-2.9c-2.1-0.6-2.1-0.7-1.9,1.5c0.6,6.8,1.6,13.5,2.6,20.2
				c1.4,9.5,3.2,18.9,5.6,28.2c2.1,8.2,4.6,16.3,8.8,23.7c1.7,3,3.5,5.8,6.4,7.8c1.1,0.8,2.4,1.2,4,1.3
				C299.2,297.7,301.1,296.6,302.8,295z M277.8,211.1c5,0.9,10.2,1.1,15.3,1.4c7.4,0.5,14.8,0.1,22.2-0.2c4.8-0.2,9.6-0.5,14.3-1.6
				c0.4-0.1,0.8-0.1,1.2-0.6c-20.2-2.6-40.3-5.5-61-1.9C272.4,210,275.1,210.6,277.8,211.1z"/>
			<path d="M276.3,180.9c4.8-0.1,8.5-3.3,8.4-7.3c-0.1-3.7-3.4-6.5-7.7-6.5c-3.4,0-6.7,4-6.6,8.1
				C270.5,178.6,272.9,180.9,276.3,180.9z"/>
		</g>
	</g>
</g>
</svg>
