<?xml version="1.0" encoding="utf-8"?>
<!-- Generator: Adobe Illustrator 23.0.1, SVG Export Plug-In . SVG Version: 6.00 Build 0)  -->
<svg version="1.1" id="Layer_1" xmlns="http://www.w3.org/2000/svg" xmlns:xlink="http://www.w3.org/1999/xlink" x="0px" y="0px"
	 viewBox="0 0 512 512" style="enable-background:new 0 0 512 512;" xml:space="preserve">
<g id="dcrpJG.tif">
	<g>
		<path d="M280.4,500c-7.5,1.1-16,1.4-24.4,1.3c-18.6-0.2-36.9-2.4-54.7-7.8c-12.8-3.9-25.6-8.1-38-13.1
			c-15.6-6.4-29.8-15.1-42.2-26.5c-8.3-7.6-13.8-17-16.6-28c-2-8.2-2.8-16.4-3.1-24.8c-0.4-9.2,0-18.3,0.4-27.5
			c0.4-7.9,0.4-15.8,0.7-23.7c0.2-6.3,0.5-12.5,0.6-18.7c0.1-5.2,0-10.4,0-15.7c0-5.5-0.1-11.1,0.3-16.6c0.2-3,1.5-5.9,2-8.9
			c0.4-2.3,0.3-4.6,1.2-6.8c1.4-3.7,3.8-6.7,6.8-9.2c7.6-6.2,15.7-11.5,25.2-14.4c2.3-0.7,4.7-1.3,7.2-1.2c1.1,0,1.4-0.4,1.4-1.3
			c0-0.9,0-1.7-0.1-2.6c-0.6-7.9-0.8-15.8-1-23.7c0-2.4-0.3-4.9-0.4-7.3c-0.3-7.1-1-14.2-1.3-21.3c-0.2-4.6-0.3-9.2,0.4-13.8
			c0.4-2.4,1.3-3.4,3.7-3.8c0.5-0.1,0.9-0.1,1.1-0.7c1.9-6.3,6.8-9.8,12.2-12.7c6.8-3.6,14.1-5.7,21.5-7.4c2.7-0.6,5.4-1.1,8.1-1.5
			c0.9-0.1,1.2-0.6,1.3-1.4c0.2-2.3-0.1-4.6-0.2-6.9c-0.3-9.7-0.3-19.4-0.2-29.2c0-2.8,0.4-5.6,0.6-8.4c0-0.4,0.1-0.8,0.3-1
			c2.4-2.2,3.1-5.6,5.6-7.8c3.5-3.1,7.5-5.3,11.7-6.9c7.8-3,15.9-5.2,24.2-6.9c5.8-1.2,11.6-1.9,17.5-2.5c2.1-0.2,2.2-0.4,1.7-2.5
			c-0.2-1-0.4-2-0.5-3.1c-0.5-4.2-0.8-8.5-1.6-12.7c-0.1-0.7-0.4-1.2-1.1-1.5c-11.3-4.2-18.6-12.7-24.6-22.7
			c-3.1-5.3-5.8-10.8-7.3-16.8c-0.9-3.5-1.2-7.1,0-10.6c2.2-6.9,9.9-10.1,17.2-6.9c4.9,2.1,8.7,5.8,12.6,9.2c0.7,0.6,1.4,1.2,2,1.9
			c1.2,1.4,1.9,0.8,2.7-0.5c3-5,6.3-9.7,11.1-13.2c3.4-2.4,7.1-3.7,11.2-3.8c4.8-0.1,8.5,3.3,10.1,8.7c1.9,6.7,0.8,13-1.5,19.3
			c-4,11.3-9.7,21.5-17.3,30.7c-2.2,2.6-4.5,5.2-7.6,6.8c-0.8,0.4-1,0.9-0.9,1.8c0.3,4.8,1.3,9.4,1.8,14.1c0.1,0.9,0.5,1.2,1.4,1.2
			c7-0.5,14.1-0.6,21.1-0.2c9.9,0.5,19.7,1.3,29,5.1c3.2,1.3,5.9,3.4,8.4,6c2,2,2.4,4,2.7,6.5c0.9,7.5,0.6,14.9,0.8,22.4
			c0.2,8.8,0.8,17.5,1.9,26.2c0.1,0.5,0.1,1,0.1,1.5c0.3,3.4,0.7,3.7,4.1,3.7c6.8,0,13.6,0.5,20.3,1.6c4.9,0.8,9.8,2.1,14.4,4.1
			c6.2,2.8,10.7,7,12.7,13.8c0.5,1.7,0.5,3.4,0.2,5.1c-0.5,2.1-0.4,4.2-0.3,6.4c0.4,7.8,1,15.7,1,23.5c0,4.4,0.4,8.9,0.5,13.3
			c0.3,7.1,0.5,14.2,0.7,21.3c0.1,4.3,0.3,8.5,0.5,12.8c0.1,1.6,0.2,3.2,0.1,4.7c-0.1,1.2,0.3,1.9,1.7,2.4c7.5,2.4,14.9,5,22.2,7.9
			c6.2,2.4,11.7,5.7,15.2,11.7c0.4,0.7,1,0.8,1.7,0.8c2.2,0.2,3.1,1.4,3.2,3.7c0.3,4.8,0.3,9.6,0.3,14.4
			c-0.1,10.6-0.4,21.1-1.5,31.7c-0.9,8.9-1.3,17.8-1.6,26.7c-0.2,6.6-0.6,13.1-0.8,19.7c-0.1,5.5-0.3,10.9,0,16.4
			c0.4,7,0.4,14,0.7,21c0.3,6.1,0.4,12.3-0.1,18.4c-0.5,5.9-1.8,11.6-5.9,16.1c-2.8,3-6.3,5.1-9.9,7.2c-9.7,5.7-19.5,11-30,15.1
			c-7.2,2.8-14.5,4.8-21.9,6.8c-7.7,2.1-15.5,3.6-23.3,5.2c-4.5,0.9-9.1,1.5-13.7,2.2c-6.2,0.8-12.4,1.4-18.5,2.3
			C292,498.7,286.7,499.4,280.4,500z M109.3,300.3c0,2.3,0,4.6,0,6.9c0,5.2-0.1,10.4-0.1,15.7c-0.1,6,0,11.9-0.2,17.9
			c-0.2,7-0.5,14-0.7,20.9c-0.2,6.9-0.3,13.8-0.6,20.8c-0.3,6.9-0.4,13.7,0.1,20.6c0.4,5.9,0.9,11.8,2,17.6
			c1.6,8.4,4.8,16.1,10.2,22.7c7,8.6,15.9,14.9,25.2,20.7c10.7,6.7,22.4,11.6,34.3,15.7c15.2,5.2,30.3,10.4,46.2,12.8
			c15.6,2.3,31.3,3.1,47.1,1.7c9.7-0.9,19.3-2,28.9-3.2c5.3-0.7,10.6-1.5,16-2.1c4.2-0.5,8.3-1.1,12.4-2c8.7-2,17.4-3.9,26.1-6.1
			c18.2-4.8,34.8-13.1,50.6-23.1c1.7-1.1,3.3-2.4,4.5-4.2c2.3-3.6,3-7.6,3.2-11.7c0.6-9.8,0-19.7-0.4-29.5
			c-0.3-7.4-0.6-14.7-0.4-22.1c0.4-11.1,0.7-22.2,1.2-33.3c0.6-13.6,2.6-27.2,2.7-40.9c0-2.7,0-5.4,0-8.4c-0.8,0.8-1.4,1.5-2.1,2.1
			c-9,7.7-19,13.8-30,18.2c-10.4,4.2-21.1,7.3-32,10c-9.8,2.4-19.6,4.7-29.6,6.1c-10.3,1.4-20.5,2.7-30.9,3.3
			c-9.3,0.6-18.6,0.9-27.9,0.9c-9.4,0-18.8-0.7-28.2-1.9c-16.3-2-32.3-5.4-48.2-9.2c-17-4.1-34-8.5-50.4-14.9
			C126.6,317.6,116.6,310.9,109.3,300.3z M150.3,193.7c0,2.7-0.1,5.5,0.1,8.2c0.4,7.4,1,14.7,1.4,22.1c0.1,2.4,0.4,4.9,0.4,7.3
			c0.1,8.4,0.4,16.8,1.1,25.1c0.1,1,0,2.1,0.1,3.1c0.5,5.5,0.6,11.1,0.8,16.6c0,0.7,0.2,1.3,0.9,1.7c6.6,3.9,12.3,9,18.4,13.5
			c6,4.4,12.2,8.2,19.1,10.9c24.5,9.6,50,12.3,76.1,11.5c5.5-0.2,11.1-0.7,16.6-1.2c6.6-0.6,13.1-1.3,19.6-2.5
			c5.6-1,11.2-2.2,16.8-3.5c5.3-1.3,10.7-2.3,15.9-3.9c12-3.6,23.2-9.1,34.3-14.7c0.4-0.2,1.1-0.3,1-0.9c-0.2-1.4,0.5-2.6,0.5-4
			c0-6.4,0.1-12.8,0-19.1c-0.1-4.8-0.4-9.6-0.6-14.4c-0.3-7.4-0.6-14.8-0.8-22.2c-0.1-3.9-0.3-7.8-0.3-11.7
			c-0.1-5.5-0.2-11.1-0.6-16.6c-0.1-1.2-0.4-1.4-1.4-0.6c-3.9,3.3-8.3,5.8-12.9,7.8c-14.5,6.6-30,9.8-45.6,12.3
			c-3.8,0.6-7.8,0.9-11.6,1.6c-6.6,1.3-13.3,1.4-20,1.8c-7.6,0.4-15.3,0.5-23,0.3c-6.8-0.2-13.6-0.3-20.4-0.7c-12-0.8-24-2-35.9-3.6
			c-10.4-1.4-20.7-3.1-30.3-7.7C162,206.2,154.5,201.9,150.3,193.7z M303.5,339.9c6.4-0.7,12.7-1.2,19.1-2.2
			c4.1-0.7,8.3-1.3,12.4-2.1c6.2-1.2,12.4-2.9,18.6-4.3c10.5-2.4,20.8-5.6,30.7-9.8c9.9-4.1,19-9.6,27.1-16.7
			c2.1-1.8,3.7-4.1,3.2-7.2c-0.8-5-4-8.2-8.1-10.4c-8.1-4.4-16.9-6.8-25.5-9.8c-0.9-0.3-1.3,0-1.3,0.9c0,1.1-0.1,2.2-0.1,3.3
			c0.1,2.4-0.7,4.8,0,7.2c0.2,0.8-0.4,1.2-1,1.6c-1.2,0.7-2.4,1.4-3.6,2.2c-11.2,7.3-23.5,12.1-36.2,16.1
			c-7.3,2.3-14.9,3.6-22.3,5.3c-7.8,1.8-15.8,3.1-23.7,4.1c-5.3,0.7-10.7,1.1-16,1.4c-6.9,0.3-13.7,0.7-20.6,0.6
			c-11.2-0.2-22.3-1-33.4-3c-13.3-2.4-26.2-6.1-38.5-11.7c-7.1-3.3-13.3-8.1-19.5-12.9c-5.4-4.1-10.7-8.3-15.7-12.8
			c-0.6-0.5-1.2-1.1-1.2-2c-0.1-3.8-0.2-7.5-0.3-11.3c0-0.9-0.2-1.3-1.1-1.5c-1.6-0.4-3.1-0.1-4.7,0.3c-4.9,1.3-9.5,3.5-13.8,6.1
			c-4.7,2.9-9.3,5.8-13,9.9c-2.2,2.4-3.7,5.3-3.1,8.6c0.5,3.2,2.1,6,3.9,8.6c5.7,8,13.4,13.3,22.3,17.1c11,4.6,22.5,8,34,11
			c29,7.6,58.2,14.5,88.4,15.4c6.8,0.2,13.6,0.2,20.4,0C288.5,341.5,296,340.9,303.5,339.9z M317.2,115.7c-2.1,1.4-3.9,2.6-5.8,3.7
			c-6.6,3.7-13.8,5.9-21.3,7.4c-7.4,1.4-14.8,2.6-22.2,3.2c-9.7,0.7-19.4,1.1-29.2,0.9c-8.2-0.1-16.4-0.7-24.5-2
			c-5.8-0.9-11.2-2.5-15.2-7.2c-0.2-0.2-0.4-0.2-0.7,0c0,1.1-0.1,2.2-0.1,3.4c0,5.4,0.1,10.8,0.1,16.2c-0.1,5.6,0.1,11.2,0.3,16.8
			c0.3,6.1,1,12.1,1.4,18.2c0.1,1.5,0.7,2.3,1.8,3c6.4,4.2,13.1,7.7,20.2,10.6c10.9,4.4,22,7,33.8,6.3c10-0.6,19.8-2.2,29.6-4.3
			c11.8-2.5,23.3-5.7,33.9-11.5c1.4-0.7,1.8-1.4,1.6-2.9c-0.6-6.9-1.2-13.7-1.9-20.6C317.8,143.1,317.2,129.5,317.2,115.7z
			 M292.2,214.5c4.2-0.6,8.5-0.9,12.7-1.6c6.7-1.1,13.3-2.1,19.9-3.5c8.6-1.8,17-4,25.2-7.3c5.8-2.4,11.4-4.9,16.1-9.2
			c2.6-2.4,5.2-4.9,3.8-9.1c-0.2-0.4-0.1-1,0-1.4c0.3-1.3-0.1-2.4-0.9-3.4c-1.1-1.4-2.3-2.7-3.8-3.7c-4.4-2.9-9.4-4.2-14.5-5.3
			c-7.7-1.6-15.6-1.7-23.4-2.1c-1.1-0.1-1.1,0.7-1,1.5c0.3,2.5,0.3,5,1,7.4c0.4,1.4,0.2,2.9-1,4.1c-0.3,0.3-0.6,0.6-0.6,1.1
			c-0.1,1.9-1.4,2.8-2.9,3.6c-7.4,3.8-15,7.2-23.2,9.2c-5.9,1.5-11.8,3.1-17.7,4.1c-4.7,0.8-9.5,1.6-14.2,2.3
			c-7.6,1.2-15.1,1.5-22.7,0.9c-10-0.8-19.4-4-28.6-7.9c-7.4-3.1-14.3-7-20.7-11.9c-1.2-0.9-1.8-1.9-1.7-3.4c0-2.7-0.1-5.5-0.5-8.2
			c-0.3-2.7-0.5-2.8-3.1-2.3c-6.2,1.2-12.3,2.8-18.3,4.9c-4.9,1.8-9.6,3.9-13.5,7.4c-3.7,3.3-4.2,6.8-1.8,11.1
			c2,3.7,5.1,6.4,8.7,8.7c9.5,6.1,20.1,8.8,31.1,10.4c22,3.2,44.2,5,66.4,5C272.6,215.9,282.4,215.8,292.2,214.5z M270.5,123.3
			c3.9-0.4,7.9-0.9,11.8-1.5c6.4-1,12.7-2.3,18.7-4.5c4.2-1.5,8.2-3.5,11.7-6.3c2.5-2,4.1-4.9,0.1-7.7c-4-2.8-8.5-3.9-13.1-4.7
			c-7.5-1.4-15-2.1-22.7-2.1c-4.6,0-9.2,0.2-13.9,0.2c-1.5,0-2.1,0.5-1.8,2.1c0.3,2,0.5,4,0.6,6c0.1,1.8-1,3.3-2.7,3.6
			c-1.6,0.3-3-0.8-3.4-2.6c-0.6-2.3-0.6-4.7-0.7-7.1c0-1-0.4-1.6-1.5-1.5c-8.7,0.8-17.4,2.1-25.9,4.3c-7.5,1.9-14.6,4.5-21.7,7.4
			c-3.4,1.4-4.5,6.2-2,8.8c2.3,2.5,5.3,3.7,8.5,4.3c9.6,2,19.4,2.5,29.2,2.6C251.3,124.7,260.9,124.3,270.5,123.3z M224,27.7
			C224.1,27.7,224.1,27.7,224,27.7c0.1,0.5,0.1,1.1,0.2,1.6c0.2,0.9,0.5,1.9,0.8,2.8c4.3,12.6,11.3,23.4,22,31.5
			c2.4,1.9,5.1,3.1,8.1,3.6c1.5,0.2,2.5-0.2,3.6-1.2c3.3-3.1,6-6.6,8.4-10.3c5.3-8.2,9.8-16.7,12.3-26.2c1-4.1,1.3-8.1-0.3-12.2
			c-1.2-2.8-2.9-3.6-6-2.8c-4,1-7,3.4-9.6,6.4c-2.4,2.8-4.2,6.1-6.3,9.2c-2.5,3.7-5.6,4.3-9.1,1.6c-1.5-1.1-2.8-2.4-4.1-3.6
			c-3.2-2.8-6.3-5.8-10.1-7.7c-5-2.5-9.2-0.2-9.8,5.3C223.9,26.4,224,27,224,27.7z"/>
		<path d="M293.7,392c1.8,0.4,3.1,1.2,3.2,3c0.1,1.8-1,3-2.4,3.8c-2.1,1.3-5.1,1.1-6.7-0.3c-1.8-1.6-2.4-4.7-1.2-7.5
			c1.6-3.6,4.5-5.7,8.2-6.8c8.5-2.3,15.4,1.2,19.7,10c6.9,14.1,1.2,32.5-15.9,38.3c-13.7,4.7-26.7,3-39-4.7
			c-6.6-4.1-12.2-9.4-17.8-14.8c-3.2-3.1-6.7-6-10.9-7.8c-6.7-2.8-13.5,0.5-16.7,5.3c-3.8,5.7-4.2,12-2.1,18.6c1.1,3.6,4,5,7.4,5.2
			c3.3,0.2,6.5-0.2,9.6-1.5c1.9-0.9,3.6-0.4,4.3,1.1c0.8,1.5,0.1,3.3-1.9,4.2c-5.4,2.5-11.1,3.1-16.9,1.3c-4.6-1.4-7.3-4.8-8.6-9.4
			c-2-7.1-1.7-14.1,1.8-20.6c5.6-10.3,17.9-15.1,29.6-7.8c5,3.1,9,7.4,13.3,11.4c7.2,6.6,14.7,12.7,24.5,14.9
			c9.4,2.1,18.5,1.2,26.7-4c10.5-6.6,12.4-22.5,3.8-31.5C302.7,389.3,297.5,389,293.7,392z"/>
		<path d="M190,391.5c0.5,5.8-1,11.2-3.7,16.3c-3.5,6.3-7.2,12.6-10.7,18.9c-0.7,1.2-1.2,2.3-1.3,3.7c-0.3,2.5-3.1,3.5-5.6,1.9
			c-5.4-3.4-10.4-7.3-14.5-12.2c-4.9-5.8-9.5-11.8-11.8-19.2c-1.8-5.8-3-11.8-2-17.9c0.3-1.7,0.9-3.1,1.9-4.5
			c2.5-3.3,6.6-3.6,10.4-0.8c3,2.2,5,5.3,7.2,8.2c1.7,2.2,1.7,2.3,3.9,0.6c3-2.2,5.9-4.4,9.4-5.5c4.7-1.5,9.2-1.7,13.2,1.9
			C188.9,385.3,189.8,388.2,190,391.5z M146.2,389.7c0.7,7.3,2.9,13.4,6.7,19c4,5.8,8.5,11.1,14.1,15.4c1.3,1,2.1,1.2,3-0.6
			c2.8-5.2,5.9-10.2,8.8-15.4c2.8-4.7,5.1-9.6,4.9-15.3c-0.1-4.2-1.5-6.4-4.9-6.4c-2.5,0-5,0.6-7.1,2c-1.6,1-3.1,2.2-4.6,3.2
			c-5.4,3.7-8.5,3.2-12.4-2c-1.9-2.5-3.5-5.1-6-7c-1.4-1.1-1.8-0.9-2.4,0.8C145.8,385.9,146.3,388.1,146.2,389.7z"/>
		<path d="M350.9,393.5c0-1.3-0.2-2.3,0-3.3c0.6-4.3,3.9-6.6,8.3-5.8c4.4,0.8,7.9,3.3,11.3,6.1c2.5,2.1,2.5,2.1,4.5-0.4
			c2.7-3.3,5.4-6.6,9.3-8.6c2.3-1.2,4.8-1.7,7.4-1.7c3.1,0,5.8,2.5,6.3,5.6c0.7,4.3-0.4,8.2-1.9,12.1c-2.5,6.7-6.5,12.5-10.3,18.4
			c-1.7,2.6-3.8,4.7-5.3,7.4c-0.8,1.4-2.5,1.6-4.4,0.7c-3-1.5-5.8-3.2-8.4-5.4c-7.2-5.9-12.9-12.9-15.9-21.8
			C351.2,395.6,351.1,394.5,350.9,393.5z M357.2,393.3c0,0.1,0.1,0.7,0.3,1.2c3.2,9,9.2,15.8,16.8,21.3c2,1.5,3.1,1.1,4.4-0.9
			c2.2-3.3,4.4-6.5,6.5-9.9c3.2-5.2,6.1-10.5,6.7-16.8c0.2-2-0.6-2.6-2.5-2c-2.2,0.7-4.1,2-5.8,3.6c-2.3,2.2-4.1,4.9-6.2,7.2
			c-2.9,3.2-5.5,3.2-8.6,0.2c-2.7-2.5-5.7-4.8-9.2-6.2C357.3,390.1,356.9,390.5,357.2,393.3z"/>
		<path d="M298.3,281.1c-9.3,1-15.7-1.7-21.8-5.9c-3.9-2.6-7.2-6.1-11.4-8.3c-2.6-1.4-5.3-2.4-8.3-2.3c-4.7,0.1-8.2,3.2-8.8,7.8
			c-0.6,4.1,1.1,7.4,3.6,10.3c1.8,2.1,4.4,2.2,6.6,0.7c1.8-1.3,3.4-1.3,4.6,0c1.1,1.3,0.8,3.2-0.8,4.7c-3.3,3-9.4,3.3-13.2,0.3
			c-5.8-4.7-9.6-14.3-4.9-22.5c3.4-6,9.6-8.6,17-7.2c5.1,1,9.3,3.6,13.2,6.7c3.8,3,7.5,6,12,8c5.8,2.5,11.5,2.3,17.1-0.4
			c4.4-2.1,6.1-6.3,4.6-10.6c-0.7-2.1-2.2-3.5-4.2-4.3c-1.3-0.6-2.5-0.4-3.6,0.9c-1.4,1.6-3.2,1.7-4.5,0.6c-1.3-1.1-1.5-2.9-0.4-4.6
			c1.9-3,6.5-4.4,10.5-2.9c4.8,1.8,7.7,5.2,8.8,10.2c1.2,5.7-0.5,10.6-5.1,14.4C305.5,279.6,301.2,280.7,298.3,281.1z"/>
		<path d="M183.4,256.3c-0.9-4.9,4.4-9,10.3-6.5c3.4,1.4,5.8,4.2,8.3,6.7c2.9,3,2.8,3,6.2,0.4c2.7-2.1,5.7-3.6,9.2-4
			c6.3-0.7,9.6,4,9.5,9.3c-0.1,7.6-2.8,14.4-6,21c-1,2-1.9,3.9-3,5.9c-1.4,2.7-3.7,3.3-6.2,1.8c-9.1-5.3-16.8-12-22.6-20.9
			C186.5,266.1,184.2,262,183.4,256.3z M220.6,262.9c-0.4-3.9-1.4-4.5-4.3-3.5c-1.5,0.5-2.8,1.4-4.1,2.3c-1.3,1-2.6,2.1-4,2.9
			c-2.9,1.8-5.3,1.6-7.8-0.8c-1.3-1.2-2.4-2.6-3.6-3.8c-1.7-1.7-3.2-3.5-5.4-4.5c-1.3-0.5-1.9-0.3-1.7,1.2c0.2,2,0.9,3.8,1.9,5.5
			c4.9,9.1,11.7,16.4,20.5,21.8c1,0.6,1.3,0.1,1.6-0.6c1.9-3.7,3.8-7.5,5.1-11.5C219.8,268.7,220.7,265.5,220.6,262.9z"/>
		<path d="M329.8,258.3c-0.1-1.3-0.3-2.6,0-4c0.8-4.1,4.8-6.3,8.6-4.7c1.6,0.7,3.1,1.5,4.2,2.9c1,1.2,1.8,1.1,2.8,0
			c2-2,4.1-3.8,7.1-4c3.8-0.3,7.3,2.3,8.1,6.1c1,4.7,0.3,9.2-1.2,13.6c-1,2.9-2.4,5.8-2.7,8.9c-0.1,1,0.1,1.9-0.2,2.9
			c-0.4,1.5-1.4,2.5-2.9,2.6c-1.6,0.1-2.8-0.8-3.1-2.3c-0.3-1.2-1-1.7-2-2.1c-5.6-2.2-10.6-5.5-14.6-10.1
			C331.4,265.4,329.9,262.2,329.8,258.3z M335.8,257.2c0.1,2,0.6,3.5,1.4,4.8c3,5,7.7,7.9,12.9,10.3c0.8,0.4,1.2,0,1.5-0.8
			c0.7-2.2,1.6-4.3,2.2-6.6c0.8-2.6,1.2-5.3,0.8-8.1c-0.3-2.1-1.6-2.6-3.2-1.3c-1.3,1-2.5,2.3-3.9,3.3c-2.8,2.3-5,2.2-7.6-0.2
			c-1-0.9-2.1-1.8-3.2-2.7c-0.6-0.5-1-0.4-1,0.5C335.7,256.8,335.8,257.2,335.8,257.2z"/>
		<path d="M271,149.9c0.4,4.4-1,8-2.6,11.4c-2.6,5.5-6.2,10.3-9.9,15.1c-0.6,0.8-1.3,1.2-2.4,0.9c-8.5-2.3-16-6.2-20.8-14
			c-1.6-2.6-2.6-5.4-2.4-8.5c0.2-4.6,3.6-6.9,8.1-5.7c3,0.8,5.6,2.4,8.1,4.1c1.3,0.8,2.2,1.2,3.5-0.3c2.4-2.8,4.8-5.6,8.3-7.1
			c0.6-0.3,1.2-0.5,1.9-0.8C267,143.1,271.1,145.9,271,149.9z M239.2,156.1c0.1,0.4,0.1,0.6,0.1,0.8c0.1,0.2,0.2,0.5,0.3,0.7
			c2,5.5,6.4,8.7,11.4,11.2c3.7,1.9,3.7,1.8,6.1-1.3c0.1-0.1,0.2-0.2,0.2-0.3c2.8-4.1,5.7-8.2,7-13.1c0.2-0.9,0.9-2.3,0.2-2.7
			c-0.8-0.5-1.9,0.5-2.7,1.1c-2.4,1.7-4,4.1-6.1,6c-2.9,2.7-5.1,3-8.5,0.9c-2.2-1.4-4.4-2.9-6.8-3.9
			C239.5,155.1,239,155.2,239.2,156.1z"/>
	</g>
</g>
</svg>
