<?xml version="1.0" encoding="utf-8"?>
<!-- Generator: Adobe Illustrator 23.0.1, SVG Export Plug-In . SVG Version: 6.00 Build 0)  -->
<svg version="1.1" id="Layer_1" xmlns="http://www.w3.org/2000/svg" xmlns:xlink="http://www.w3.org/1999/xlink" x="0px" y="0px"
	 viewBox="0 0 512 437.8" style="enable-background:new 0 0 512 437.8;" xml:space="preserve">
<style type="text/css">
	.st0{fill:none;stroke:#fff;stroke-width:4;stroke-miterlimit:10;}
</style>
<path class="st0" d="M47.6,258.2l180.7,168.7c7.5,7,17.4,10.9,27.7,10.9c10.3,0,20.2-3.9,27.7-10.9l180.7-168.7
	c30.4-28.3,47.6-68,47.6-109.5v-5.8c0-69.9-50.5-129.5-119.4-141C347-5.7,300.6,9.2,268,41.8l-12,12l-12-12
	C211.4,9.2,165-5.7,119.4,1.9C50.5,13.4,0,73,0,142.9v5.8C0,190.2,17.2,229.9,47.6,258.2z"/>
</svg>
