<?xml version="1.0" encoding="utf-8"?>
<!-- Generator: Adobe Illustrator 23.0.1, SVG Export Plug-In . SVG Version: 6.00 Build 0)  -->
<svg version="1.1" id="Layer_1" xmlns="http://www.w3.org/2000/svg" xmlns:xlink="http://www.w3.org/1999/xlink" x="0px" y="0px"
	 viewBox="0 0 512 512" style="enable-background:new 0 0 512 512;" xml:space="preserve">
<g id="WOMqUp.tif">
	<g>
		<path d="M396.7,34.5c0.6,0.3,1.2,0.8,1.8,0.9c9,2.7,17.7,6.3,26.5,9.5c9.1,3.4,18,7.2,26.8,11.4c3.7,1.8,7.5,3.3,11.4,4.5
			c4.7,1.4,6.9,4.4,7.6,9.1c1.4,9.8,3,19.6,4.6,29.4c0.1,0.9,0.4,1.7,0.5,2.6c0.2,1.5,0.7,2.3,2.6,2.4c6.5,0.4,9.7,5.8,7.5,12.8
			c-3,9.4-8.7,17.2-15.9,23.7c-10.1,9.1-21.9,15.3-35,19c-0.5,0.1-1,0.3-1.5,0.4c-0.1,0-0.3,0.2-0.5,0.4c4.6,4.6,9.2,9.2,13.5,14.1
			c7.7,9,14.6,18.6,20.5,28.8c13.1,22.6,21.3,46.7,24.8,72.6c2.8,20.9,2.3,41.7-1.5,62.5c-2.3,12.6-5.6,25-10.3,36.8
			c-14.5,36.5-37.5,66.6-70.3,88.6c-34,22.8-71.5,32.6-112.3,29.1c-9.3-0.8-18.3-2.5-27.4-4.8c-8.5-2.2-16.7-5-24.6-8.4
			c-17.5-7.6-33.4-17.7-47.6-30.5c-13.9-12.5-25.8-26.7-35.4-42.9c-1.3-2.2-3.5-1.8-5.3-2.1c-11.4-2.4-22.5-5.7-33.3-10.1
			c-17.1-6.9-32.8-16.2-47-27.9c-16-13.1-29.3-28.6-39.8-46.5C17.3,286.2,9.7,249.9,14,211.2c1.2-10.6,3.2-21.1,6.9-31.2
			c0.4-1,0.8-2,0.7-3c0.2-0.7,0.4-1.3,0.7-2c2.1-3.5,3-7.6,4.6-11.3c5.7-13.4,12.9-25.9,21.8-37.5c20.2-26.4,45.7-45.9,76.6-58.4
			c21.6-8.7,44-13.3,67.3-13.6c17.1-0.2,33.9,2,50.4,6.3c13,3.4,25.4,8.3,37.3,14.4c19.1,9.9,36,22.8,50.5,38.9
			c0.3,0.4,0.6,0.9,1.3,0.3c-2.2-3.6-4.8-7-6.4-11c-3.3-8.6-6.8-17.1-9.8-25.8c-3.1-9.1-2-17.5,5-24.6c4.7-4.8,10.7-7.8,16.7-10.6
			c3.9-1.8,7.8-4.2,12.4-2.2c0.3,0.1,0.8-0.2,1.2-0.4c5.4-2.3,10.7-4.6,16.1-6.8c4.4-1.8,8.7-4,13.7-3.6
			C386.1,31,391.4,32.8,396.7,34.5z M340.4,50.8c-4.8,1.9-8.6,4.3-12.2,7.2c-4.6,3.7-5.9,8.6-4.6,14.2c0.7,2.9,2,5.5,3,8.3
			c3.9,10.9,7.2,22,14.4,31.3c1.4,1.8,2.5,4.3,0.9,6.6c-2.3,3.2-4.9,5.5-9.6,5c-29.6-3.3-58.1,1.6-85.1,13.9
			c-18.5,8.4-34.8,19.9-49.2,34.3c-17,17-30.2,36.6-39.5,58.9c-4.7,11.4-8.6,23.2-11.1,35.3c-3.1,14.9-4.4,30-3.8,45.3
			c1.5,39.3,13.6,74.9,37.2,106.4c18.6,24.9,42.3,43.5,71.1,55.3c13.9,5.7,28.4,9.7,43.5,11.2c40,4,76.7-5.3,109.9-27.7
			c28-18.9,48.5-44.2,62.5-74.8c4.9-10.7,8.6-21.8,11.3-33.2c2.6-10.9,4.4-21.9,5-33.1c2.2-37.2-5.4-72.2-23.7-104.8
			c-6-10.7-13-20.6-21-29.8c-5.1-5.8-10.5-11.3-16.3-16.5c-4.1-3.7-3.6-8,1.4-10.4c1.7-0.8,3.6-1.4,5.4-1.8
			c12.5-2.9,23.5-8.6,33.2-16.8c6.2-5.2,11-11.6,13.7-19.4c0.2-0.5,0.6-1.2,0.1-1.7c-0.6-0.5-1.1,0-1.7,0.3c-3.1,1.4-6,3.1-8.8,5
			c-8.1,5.6-15.7,12.1-24.3,17.1c-6.2,3.6-12.8,5.8-20,5.8c-7.3,0-13.5-2.6-17.7-8.7c-3.1-4.6-3.9-10-3.8-15.5
			c0.1-10.1,2.1-20,4.9-29.7c0.7-2.6,2-5.2,1.4-7.8c-0.5-2.5-0.5-4.4,1.3-6.2c0.9-0.9,0.8-2.2,0.2-3.2c-0.7-1.1-1.9-0.6-2.8-0.3
			c-1.9,0.7-3.5,2-4.9,3.3c-7.6,7.2-13,15.8-16.7,25.5c-1.9,5-3.8,10-6.1,14.9c-3.7,8.1-13.2,11.3-20.5,3.4
			c-6.3-6.8-10.7-14.8-14.4-23.1c-4.2-9.5-6.9-19.3-5.8-29.9C337.6,60.2,338.6,55.7,340.4,50.8z M273.3,118.9
			c-9.9-6.5-20.1-11.1-30.6-14.9c-10.2-3.7-20.8-6.1-31.6-7.3c-42.4-4.8-80.5,5.5-113.7,32.6c-17.2,14-30,31.6-38.4,52.1
			c-4.3,10.4-7.3,21.2-8.7,32.4c-3.2,24.7,0.2,48.4,10.1,71.1c10.1,23,25.4,42,45.5,57.1c10.5,7.9,21.9,14.4,34.2,19.1
			c0.8,0.3,1.7,1.1,2.4,0.5c0.8-0.7,0-1.6-0.3-2.4c-4.2-14.6-6.5-29.5-7.3-44.7c-1-20.2,1-40.1,6-59.6c1.9-7.5,4.2-15,7.2-22.3
			c3.7-9,7.7-17.9,12.5-26.3c11.6-20.3,26.4-38.1,44.6-52.8c14.7-11.9,30.8-21.4,48.5-28.1C259.9,122.9,266.2,121,273.3,118.9z
			 M156,394.9c-3.5-7.3-6.5-14.2-9.2-21.3c-0.3-0.7-0.7-1.1-1.4-1.3c-10-3.2-19.6-7.5-28.7-12.8c-32.2-18.9-55.5-45.4-68.2-80.7
			c-10.8-30.2-11-60.6-1.5-91c2.7-8.5,6.4-16.7,10.8-24.5c13.4-24,32.1-42.7,55.8-56.2c19.5-11.2,40.6-17.7,63-19.9
			c19.7-1.9,39.2-0.2,58.3,5c13.6,3.7,26.6,9.1,38.8,16.3c3.3,2,7.1,3.5,9.6,6.6c0.9,1.2,1.7,1.5,3,1.2c7.6-1.5,15.3-2.1,23.1-2.4
			c2.8-0.1,5.6-0.2,8.5-0.2c-0.2-0.4-0.2-0.5-0.3-0.6c-19.2-19.3-42-32.7-67.6-41.4c-9.6-3.2-19.5-5.4-29.6-6.9
			c-32.6-4.6-64.1-0.6-94.5,12.1c-20.7,8.6-38.9,21-54.9,36.8c-16.8,16.6-29.4,36-38.1,57.9c-3.8,9.5-6.5,19.4-8.4,29.5
			c-3,16.4-3.6,32.9-1.7,49.5c2.7,23.2,10.3,44.8,22.1,64.9c7.4,12.5,16.3,23.8,26.7,33.9c20.4,19.9,44.3,33.9,71.6,42.2
			C147.2,393.1,151.3,394.4,156,394.9z M410.2,123.1c1.6-0.4,2.7-1.5,3.9-2.3c9.1-5.9,17.6-12.4,25.6-19.6c1-0.9,2.4-1.8,0.1-3
			c-7.3-3.9-14.6-7.9-22.2-11.4c-1.8-0.9-2.4-0.4-2.9,1.3c-1.9,6.9-3.5,13.8-4.4,20.8C409.7,113.6,409.2,118.3,410.2,123.1z
			 M372.5,104.9c1.4-5.1,3.6-9.5,5.5-14.1c2.6-6.2,6.5-11.7,10.6-16.9c0.8-1,1.5-1.8-0.4-2.4c-8.7-2.8-17.1-6.3-25.6-9.6
			c-0.7-0.3-1.4-0.8-2.3-0.3C363.6,76.1,367.1,90.5,372.5,104.9z M414.9,130.8c1.2,0.9,2.1,1.6,3.2,1.8c6.4,1.2,12.4-0.2,18.1-3.3
			c9.4-5.1,17.3-12.2,26.1-18.1c1.3-0.9,1.1-1.2-0.2-1.9c-3.5-1.8-6.9-3.6-10.3-5.5c-1.2-0.7-2-0.3-2.9,0.7
			c-3.3,3.5-7.1,6.6-10.9,9.7C430.7,120.1,423,125.5,414.9,130.8z M364.8,111.7c-0.6-2.4-1-4.9-1.8-7.3
			c-4.3-12.9-7.7-26.1-10.7-39.4c-0.6-2.5-1.1-5.1-1.6-7.6c-0.2-1-0.9-1.5-1.8-1.6c-0.8-0.1-1.1,0.5-1.2,1.1
			c-0.7,4.2-1.9,8.3-1.8,12.6c0.3,12.1,5.2,22.6,10.9,32.8C358.9,105.8,361.3,109.2,364.8,111.7z M466.6,101.5
			c-1.3-8.2-2.5-16-3.7-23.8c-0.6-3.6-0.5-3.5-3.7-1.6c-6.8,4-13.2,9-22,10.8C447.2,91.9,456.7,96.6,466.6,101.5z M431.6,83.7
			c-1.8-2.8-2.2-5.5-2.5-8.3c-0.4-4-1-7.9-1.3-11.9c-0.2-2.6-1.2-2.6-3-1.4c-2.1,1.3-4.3,2.6-6.6,3.7c-1.3,0.6-1.5,1.2-1,2.6
			c0.7,1.7,0.9,3.6,0.6,5.4c-0.6,2.8,0.9,4,3.2,5C424.4,80.3,427.7,81.9,431.6,83.7z M455.6,67.8c-6.7-3-12.9-5.8-19.5-8.7
			c1.2,5.8,1.5,11.3,2.1,16.7c0.1,1.4,0.8,1.6,1.9,1C445.4,74.3,450.3,71,455.6,67.8z M381.8,60c5,2.2,10.1,3.4,15.2,4.6
			c1.8,0.4,3.9-1.6,3.3-3c-1.3-3.2-2.7-6.4-3.9-9.6c-0.7-1.7-1.5-1.5-2.7-0.7C389.8,54.2,385.9,57.1,381.8,60z M353.7,48.4
			c5.3,2.4,10.2,4.6,15.2,6.8c1,0.4,1.2,0,1.3-0.9c0.3-3.9,0.5-7.8,0.8-11.6c0.1-1.6-0.7-1.7-1.9-1.3c-1.7,0.7-3.4,1.3-5,2.1
			C360.8,45.2,357.1,46,353.7,48.4z M403.9,47.1c1.8,4.2,3.4,8,5,11.7c0.3,0.7,0.6,1.3,1.5,0.9c4-1.8,7.8-3.9,11.7-6.6
			C415.9,51.2,410.1,49.2,403.9,47.1z M385.4,39.8C385.4,39.8,385.4,39.8,385.4,39.8c-1.1-0.4-2.3-0.7-3.4-1.2
			c-1.6-0.7-2.2-0.2-2.3,1.5c-0.1,2.9-0.3,5.7-0.4,8.6c0,0.5-0.1,1.2,0.2,1.5c0.6,0.5,1.1-0.1,1.6-0.4c3-2.2,6-4.4,9.1-6.6
			c1.2-0.9,0.7-1.5-0.3-1.9C388.4,40.7,386.9,40.3,385.4,39.8z"/>
		<path d="M449.2,379.7c-9.2,27.4-26,50.7-51.3,67.6c-22.6,15.1-47.7,21.8-74.8,21c-9.9-0.3-19.7-1.7-29.3-4.2
			c-40.5-10.4-71.6-34.1-95-68.2c-21.1-30.9-31.4-65.2-30.4-102.8c0.3-11.8,2.1-23.4,5.1-34.9c8-30,23.7-54.9,48.6-73.5
			c25.3-19,54.1-26.8,85.5-24.7c11.5,0.8,22.6,3.2,33.6,6.6c37.6,11.7,65.9,35.4,87.3,67.7c19,28.7,28.7,60.5,28.9,94.9
			c0.1,12.3-1.3,24.4-4.2,36.4C452.3,370,450.8,374.1,449.2,379.7z M219.3,407.5c0.2,0.7,0.8,1.2,1.3,1.8
			c14.9,16.2,32.1,29.3,52.4,38.2c11.4,5,23.3,8.7,35.6,10.5c21.5,3.1,42.4,1.1,62.7-6.9C386.9,445,400.5,436,412,424
			c15.3-16,25.8-34.7,31.4-56.2c2.5-9.5,4.2-19.1,4.7-28.9c1.9-33.5-6.2-64.4-23.2-93.2c-11.7-19.8-26.8-36.5-45.5-49.9
			c-2.8-2-5.6-4.1-9-5.7c3.1,13.2,3.8,26.3,4.4,39.4c0.7,15.9-1,31.5-5.8,46.8c-4.7,15.1-12.2,28.9-19.8,42.6
			c-8.8,15.9-19.7,30.2-33.1,42.6c-12.9,12-27,22.4-42.3,31.1C256.9,402,239.1,407.8,219.3,407.5z M185.6,249.5
			c-2.5,5.9-4.5,14.1-6,22.4c-2.8,15.8-3,31.8-0.8,47.7c2.3,16.8,7.1,32.9,14.4,48.3c0.4,0.8,0.6,1.9,1.9,1.9
			c4.4-0.2,8.8,1.1,13.2,0.8c7.3-0.6,14.5-1.8,21.7-3.2c15.2-2.9,29.4-8.5,42.1-17.5c10.1-7.2,18.2-16.4,25.5-26.3
			c10.1-13.6,19.5-27.7,26.2-43.3c4.7-10.8,6.9-22.4,6.9-34.3c0-20.9-3.6-41.3-7.7-61.7c-0.7-3.5-1.9-6.9-3.8-10
			c-1.8-3.1-4.1-5.3-8.2-5.4c-4.1-0.1-8.1-0.6-12.2-0.5c-27.5,0.1-52.2,8.3-73.8,25.3C206.9,207.9,194.3,226.1,185.6,249.5z
			 M199.1,379.7c2.1,3.3,4.3,6.7,6.3,10.1c2,3.3,4.2,6.1,8.6,6.8c4.9,0.8,9.7,2.6,14.8,1.8c11.3-1.6,22.4-4.4,32.7-9.5
			c7.7-3.8,15.1-8.2,22.2-13.1c18-12.3,34.2-26.5,46.9-44.4c10.9-15.3,19.6-31.9,26.7-49.3c3.9-9.5,6.4-19.3,7.7-29.4
			c1.8-13.4,0.9-26.9-0.1-40.3c-0.7-9.1-2-18.1-5-26.8c-0.6-1.8-1.6-2.9-3.4-3.6c-2.3-0.8-4.5-1.8-6.7-2.9
			c-6.5-3.3-13.4-5.1-20.3-7.2c-1.3-0.4-1.6,0-1.1,1.3c0.7,1.7,1.4,3.4,1.9,5.1c3.6,11.2,4.6,22.8,6.4,34.3c2,12.5,3.4,25,2.6,37.6
			c-0.7,12.2-3.1,24.1-8.2,35.3c-3.8,8.6-8.7,16.6-13.6,24.5c-8.2,13.1-17.3,25.6-28.1,36.7c-10,10.2-21.9,17.3-35,22.6
			C236.8,376.5,218.4,379.6,199.1,379.7z"/>
		<path d="M372.8,148.2c2.7-2.5,5.2-4.6,8.3-6c2.4-1.1,4.8-1.1,6.8,0.7c1.9,1.7,1.9,4,1,6.3c-1.6,4.1-4.3,7.4-7.5,10.1
			c-3,2.6-6.3,4.9-9.5,7.3c-2.4,1.7-4.2,1-6.7-0.2c-7.1-3.4-6-10-6.8-15.9c-0.4-3.1,0.4-6.2,1.1-9.3c0.6-2.6,3-4.7,5.2-4.9
			c2.3-0.2,4.7,1.3,6,3.9C371.9,142.6,372,145.3,372.8,148.2z"/>
	</g>
</g>
</svg>
