<svg width="1237" height="366" viewBox="0 0 1237 366" fill="none" xmlns="http://www.w3.org/2000/svg">
<path fill-rule="evenodd" clip-rule="evenodd" d="M274.475 5.00097C274.548 5.03588 274.623 5.06909 274.7 5.10009C279.157 6.42334 283.518 8.08618 287.883 9.75073C289.785 10.4761 291.688 11.2019 293.6 11.8999C300.1 14.3 306.4 17 312.7 20C315.3 21.1999 318 22.3999 320.8 23.1999C324.1 24.1999 325.7 26.3 326.2 29.6999C326.849 34.2461 327.583 38.75 328.319 43.2666L328.322 43.2834L328.323 43.2908L328.324 43.2974L328.335 43.3647C328.727 45.7705 329.119 48.1794 329.5 50.6001C329.55 50.8999 329.625 51.1999 329.7 51.4998C329.733 51.6316 329.766 51.7634 329.797 51.8953C329.836 52.0635 329.872 52.2317 329.9 52.3999C330.1 53.5 330.4 54 331.7 54.1001C336.4 54.3999 338.6 58.1999 337.1 63.1999C335 69.8999 330.9 75.5 325.8 80.1001C318.6 86.5 310.2 91 300.9 93.6001C300.7 93.6499 300.525 93.6999 300.35 93.75C300.248 93.7793 300.145 93.8086 300.038 93.8376C299.962 93.8584 299.883 93.8791 299.8 93.8999C299.7 93.8999 299.6 94 299.4 94.1999C299.663 94.4629 299.926 94.7253 300.189 94.9873L300.818 95.6143C303.64 98.4236 306.43 101.202 309 104.2C314.5 110.6 319.4 117.4 323.6 124.7C332.9 140.8 338.8 158 341.2 176.4C343.2 191.3 342.8 206.1 340.2 220.9C338.6 229.9 336.2 238.7 332.9 247.1C322.6 273.1 306.2 294.5 282.8 310.1C258.6 326.3 231.9 333.3 202.9 330.8C196.3 330.2 189.8 329 183.4 327.4C177.4 325.9 171.5 323.9 165.9 321.4C153.5 316 142.2 308.8 132 299.7C122.1 290.8 113.6 280.7 106.8 269.2C106.09 267.937 104.944 267.858 103.853 267.782L103.823 267.78C103.701 267.772 103.579 267.763 103.46 267.753C103.303 267.739 103.15 267.723 103 267.7C94.9 266 87 263.7 79.3 260.5C67.1 255.6 56 248.9 45.8 240.6C34.4 231.2 24.9 220.2 17.4 207.5C3.30004 183.5 -2.09999 157.7 0.900014 130.2C1.69994 122.6 3.19994 115.2 5.80004 108C6.09997 107.3 6.30004 106.6 6.30004 105.8C6.39989 105.55 6.47484 105.325 6.54979 105.101C6.58434 104.997 6.61889 104.893 6.65587 104.787C6.67272 104.739 6.69005 104.69 6.70812 104.64C6.73668 104.562 6.76696 104.482 6.80004 104.4C7.76879 102.785 8.36217 101.004 8.95726 99.2173C9.28356 98.2375 9.61046 97.2563 9.99999 96.3C14 86.6999 19.1999 77.8 25.5 69.6001C39.9 50.8 58.1 36.8999 80 28C95.4 21.8 111.3 18.5 127.9 18.3999C140.1 18.3 152 19.8 163.8 22.8999C173.1 25.3 181.9 28.8 190.4 33.1999C204 40.3 216.1 49.5 226.3 60.8999C226.5 61.1999 226.7 61.5 227.2 61.1001C227.074 60.895 226.946 60.6912 226.818 60.4883C226.534 60.0386 226.245 59.5937 225.958 59.1504L225.948 59.1343C224.725 57.2461 223.519 55.3838 222.7 53.3C221.846 51.0354 220.965 48.7707 220.081 46.5007C218.585 42.6567 217.083 38.7981 215.7 34.8999C213.5 28.5 214.3 22.3999 219.3 17.3999C222.7 14 226.9 11.8999 231.2 9.8999C231.456 9.77661 231.713 9.64965 231.972 9.52197C234.436 8.30517 237.013 7.03271 240 8.30004C240.2 8.3999 240.6 8.19995 240.9 8C242.007 7.53393 243.114 7.05932 244.223 6.58374C246.922 5.42651 249.636 4.26294 252.4 3.19995C252.952 2.98632 253.504 2.75683 254.059 2.52612C256.62 1.46118 259.241 0.371334 262.2 0.699947C263.694 1.18457 265.188 1.68603 266.69 2.1892L266.914 2.26464L266.961 2.28076L266.991 2.29101C269.107 3.0017 271.237 3.71704 273.4 4.3999C273.554 4.4768 273.708 4.5686 273.867 4.66381C273.982 4.73242 274.1 4.80297 274.224 4.87085C274.305 4.91552 274.389 4.95947 274.475 5.00097ZM233.3 16C229.9 17.3999 227.2 19.1001 224.6 21.1001C221.3 23.8 220.4 27.1999 221.3 31.1999C221.61 32.5015 222.112 33.688 222.615 34.8779C222.924 35.6082 223.234 36.3396 223.5 37.1001C223.91 38.2285 224.31 39.3611 224.709 40.4936C227.036 47.0896 229.362 53.6819 233.8 59.3999C234.8 60.6999 235.6 62.5 234.4 64.1001C232.8 66.3999 230.9 68 227.5 67.6999C206.4 65.3 186.2 68.8 166.9 77.6001C153.8 83.6001 142.1 91.8 131.9 102C119.8 114.1 110.4 128 103.8 143.9C100.4 152 97.6999 160.4 95.9 169C93.6999 179.6 92.8 190.4 93.1999 201.2C94.3 229.2 102.9 254.5 119.7 276.9C133 294.6 149.8 307.8 170.3 316.3C180.2 320.4 190.6 323.2 201.3 324.3C229.7 327.1 255.9 320.5 279.5 304.6C299.4 291.2 314 273.1 324 251.4C327.5 243.8 330.1 235.9 332 227.7C333.9 219.9 335.1 212.1 335.6 204.1C337.2 177.6 331.7 152.7 318.7 129.5C314.4 121.9 309.5 114.9 303.8 108.3C300.2 104.1 296.3 100.3 292.2 96.6001C289.3 94 289.7 90.8999 293.2 89.1999C294.4 88.6001 295.7 88.1999 297.1 87.8999C306 85.8999 313.8 81.8 320.7 75.8999C325.1 72.1999 328.5 67.6001 330.4 62.1001C330.427 61.9941 330.474 61.8811 330.522 61.7666C330.656 61.449 330.794 61.1204 330.5 60.8999C330.18 60.5798 329.86 60.772 329.54 60.9641C329.46 61.0122 329.38 61.0601 329.3 61.1001C327.1 62.1001 325 63.3 323 64.6999C320.847 66.1846 318.75 67.7517 316.651 69.3198L316.647 69.3227C313.093 71.9785 309.535 74.6367 305.7 76.8999C301.3 79.5 296.6 81.1001 291.4 81C286.2 81 281.8 79.1999 278.8 74.8C276.6 71.5 276 67.6999 276.1 63.8C276.2 56.6001 277.6 49.6001 279.6 42.6999C279.71 42.303 279.84 41.9011 279.971 41.4956C280.434 40.062 280.912 38.5811 280.6 37.1001C280.2 35.3 280.3 34 281.5 32.6999C282.1 32 282.1 31.1999 281.6 30.5C281.1 29.6999 280.2 30 279.6 30.3C278.2 30.8 277.1 31.6999 276.1 32.6999C270.7 37.8 266.8 43.8999 264.2 50.8L264.039 51.2158L263.819 51.7842C263.655 52.2109 263.492 52.6374 263.329 53.0632C262.241 55.9014 261.164 58.7131 259.9 61.3999C257.2 67.1999 250.5 69.5 245.3 63.8C240.8 59 237.7 53.3 235.1 47.3C232.1 40.6001 230.2 33.5 230.9 26C231.3 22.6999 232.1 19.5 233.3 16ZM185.5 64.5C178.5 59.8 171.2 56.6001 163.7 53.8999C156.4 51.3 148.9 49.5 141.2 48.6999C111 45.3 83.9 52.6001 60.1999 71.8999C48 81.8999 38.9 94.3999 32.9 109C29.9 116.4 27.6999 124.1 26.6999 132C24.5 149.6 26.8 166.5 33.9 182.6C41.1 199 52 212.5 66.3 223.2C73.8 228.8 81.9 233.4 90.6 236.8C90.6443 236.818 90.6902 236.838 90.7374 236.859C90.7959 236.886 90.8563 236.916 90.9182 236.945L90.9244 236.948C91.3747 237.165 91.9011 237.419 92.3 237.1C92.7727 236.706 92.5006 236.188 92.266 235.741L92.2641 235.738L92.2576 235.725C92.2224 235.658 92.1881 235.592 92.1576 235.529C92.1362 235.485 92.1167 235.442 92.1 235.4C89.1 225 87.5 214.4 86.9 203.6C86.1999 189.2 87.6 175.1 91.1999 161.2C92.6 155.8 94.1999 150.5 96.3 145.3C98.9 138.9 101.7 132.6 105.2 126.6C113.5 112.1 124 99.5 137 89C147.5 80.5 158.9 73.6999 171.5 69C175.495 67.4907 179.49 66.2966 183.836 64.998C184.385 64.834 184.939 64.6682 185.5 64.5ZM102.1 260.9C99.6 255.7 97.4 250.8 95.6 245.8C95.4 245.3 95.1 245 94.6 244.9C87.5 242.6 80.6 239.6 74.1999 235.8C51.3 222.4 34.6999 203.5 25.6999 178.4C18 156.9 17.9 135.3 24.6999 113.6C26.6 107.5 29.3 101.7 32.4 96.1999C41.9 79.1001 55.1999 65.8 72.1999 56.1999C86.1 48.3 101.1 43.6001 117 42C131.1 40.6001 144.9 41.8999 158.5 45.6001C168.2 48.1999 177.4 52.1001 186.1 57.1999C186.604 57.4939 187.117 57.7751 187.63 58.0559L187.632 58.0566C189.559 59.1116 191.479 60.1628 192.9 61.8999C193.6 62.6999 194.1 62.8999 195 62.8C200.4 61.6999 205.9 61.3 211.4 61.1001C211.707 61.0847 212.014 61.0718 212.321 61.0603C213.014 61.0347 213.707 61.0173 214.4 61C215.4 60.9751 216.4 60.9499 217.4 60.8999C217.378 60.8332 217.36 60.7764 217.346 60.7283L217.344 60.7222C217.295 60.5591 217.277 60.5 217.2 60.5C203.6 46.8 187.3 37.1999 169.1 31.1001C162.3 28.8 155.2 27.1999 148 26.1999C124.8 22.8999 102.4 25.8 80.8 34.8C66.1 40.8999 53.1 49.8 41.6999 61C29.8 72.8 20.8 86.6001 14.6 102.2C11.9 109 9.90001 116 8.59997 123.2C6.40001 134.9 5.99999 146.6 7.40001 158.4C9.40001 174.9 14.6999 190.3 23.1999 204.6C28.5 213.5 34.8 221.5 42.1999 228.8C56.6999 243 73.8 252.9 93.1 258.8C93.3036 258.86 93.5083 258.922 93.7143 258.984L94.2508 259.147C96.6249 259.867 99.1777 260.642 102.1 260.9ZM283 67.5C283.857 67.2856 284.459 66.8162 285.061 66.3469C285.302 66.1592 285.543 65.9714 285.8 65.8C292.2 61.6001 298.3 56.8999 304 51.8999C304.042 51.8638 304.085 51.8274 304.129 51.7905C304.811 51.2153 305.604 50.5459 304.1 49.6999C298.9 46.8999 293.7 44.1001 288.3 41.6001C287 41 286.6 41.3 286.3 42.5C285 47.3999 283.8 52.3 283.1 57.3L283.088 57.4055C282.692 60.7683 282.307 64.0361 283 67.5ZM256.2 54.5C257.071 51.3633 258.322 48.5303 259.556 45.7366L259.576 45.6912C259.751 45.2935 259.926 44.8967 260.1 44.5C262 40.1001 264.7 36.1999 267.6 32.3999C268.2 31.6999 268.7 31.1001 267.3 30.6999C262.693 29.2139 258.196 27.4517 253.728 25.7002C252.183 25.0947 250.641 24.4907 249.1 23.8999C249.048 23.8791 248.996 23.856 248.943 23.832L248.889 23.8064L248.813 23.7705C248.405 23.5764 247.985 23.3765 247.5 23.6999C249.9 34 252.4 44.3 256.2 54.5ZM286.3 73C287.2 73.6999 287.8 74.1001 288.6 74.3C293.2 75.1001 297.4 74.1001 301.5 71.8999C305.654 69.668 309.385 66.8594 313.122 64.0461L313.129 64.041L313.133 64.0381L313.137 64.0352C315.423 62.3147 317.711 60.5923 320.1 59C321 58.3999 320.9 58.1001 320 57.6999C317.5 56.3999 315.1 55.1001 312.7 53.8C311.8 53.3 311.3 53.6001 310.6 54.3C308.2 56.8 305.5 59 302.8 61.1999C297.6 65.3999 292.1 69.1999 286.3 73ZM250.7 59.3C250.59 58.834 250.488 58.3603 250.385 57.8833C250.113 56.6206 249.836 55.334 249.4 54.1001C246.3 44.8999 243.9 35.5 241.8 26L240.6 20.6001C240.5 19.8999 240 19.6001 239.3 19.5C238.8 19.3999 238.5 19.8 238.5 20.3C238.435 20.6892 238.365 21.0769 238.293 21.4631C238.224 21.8306 238.153 22.1968 238.082 22.5623L238.074 22.604C237.647 24.8022 237.226 26.9734 237.3 29.1999C237.5 37.8 241 45.3 245.1 52.5C246.5 55.1001 248.2 57.6001 250.7 59.3ZM323.1 52.1001C322.2 46.1999 321.3 40.6999 320.4 35.1999L320.364 34.9619C320.194 33.8525 320.109 33.2964 319.823 33.1602C319.536 33.0229 319.045 33.311 318.06 33.8887L317.7 34.1001C316.55 34.7568 315.423 35.4578 314.289 36.1626L314.287 36.1641C310.588 38.4634 306.821 40.8052 302 41.8C309.4 45.3 316.1 48.6001 323.1 52.1001ZM298.2 39.3999C296.9 37.3999 296.6 35.5 296.4 33.5C296.343 32.9712 296.283 32.4424 296.221 31.9131C296.179 31.5474 296.135 31.1811 296.092 30.8144L296.091 30.8042C295.864 28.8948 295.636 26.9705 295.5 25C295.4 23.1999 294.7 23.1999 293.3 24C291.8 24.8999 290.2 25.8 288.6 26.6001C287.7 27.1001 287.5 27.5 287.9 28.3999C288.4 29.6001 288.6 31 288.3 32.1999C287.9 34.1999 288.9 35.1001 290.6 35.6999C293.1 37 295.5 38.1999 298.2 39.3999ZM315.3 28.1001C311.955 26.6367 308.805 25.2222 305.612 23.7883C304.223 23.1643 302.825 22.5366 301.4 21.8999C302.096 25.0688 302.373 28.1186 302.648 31.1411L302.648 31.144L302.658 31.2495C302.701 31.7236 302.744 32.197 302.789 32.6704C302.825 33.0471 302.861 33.4236 302.9 33.8C303 34.8 303.5 34.8999 304.3 34.5C307.152 33.1489 309.779 31.5164 312.519 29.8135C312.962 29.5378 313.408 29.2605 313.859 28.9822C314.027 28.8782 314.196 28.7739 314.366 28.6697C314.675 28.48 314.986 28.29 315.3 28.1001ZM262.8 22.6001C266.17 24.0444 269.726 24.9326 273.2 25.8L273.6 25.8999C274.9 26.1999 276.4 24.8 276 23.8C275.553 22.6577 275.081 21.5405 274.609 20.4233L274.605 20.4116L274.6 20.3999L274.595 20.3882L274.59 20.3765C274.119 19.2593 273.647 18.1421 273.2 17C272.7 15.8 272.1 15.8999 271.3 16.5C269.269 17.8782 267.238 19.3621 265.168 20.874L265.117 20.9114L265.108 20.9187L265.078 20.9407L264.941 21.0405C264.232 21.5581 263.519 22.0791 262.8 22.6001ZM247.205 16.25L247.282 16.2837C249.43 17.2292 251.515 18.147 253.6 19.1001C254.3 19.3999 254.5 19.1001 254.5 18.5C254.6 17.1001 254.7 15.7251 254.8 14.3501C254.9 12.9751 255 11.6001 255.1 10.1999C255.2 9 254.6 9 253.7 9.30004C253.3 9.46679 252.9 9.62231 252.5 9.77783C251.7 10.0889 250.9 10.3999 250.1 10.8C249.23 11.2539 248.316 11.6221 247.387 11.9966L247.382 11.9988C245.857 12.613 244.29 13.2446 242.8 14.3C244.309 14.9751 245.771 15.6189 247.205 16.25ZM278.5 13.3999C279.8 16.3999 280.9 19.1001 282 21.8C282.2 22.3 282.5 22.8 283.1 22.5C285.9 21.1999 288.6 19.6999 291.5 17.8L290.675 17.5188L290.569 17.4829C286.517 16.1011 282.681 14.7935 278.5 13.3999ZM264.523 7.90649L264.496 7.8977C264.338 7.8479 264.179 7.7976 264.021 7.74536C263.639 7.61914 263.26 7.47973 262.9 7.30004C261.8 6.80004 261.3 7.19995 261.3 8.3999C261.2 10.3999 261.1 12.5 261 14.5C261 14.6016 260.994 14.7095 260.987 14.8159C260.968 15.1282 260.951 15.4253 261.1 15.5C261.422 15.8215 261.744 15.5613 262.013 15.3428L262.019 15.3376L262.084 15.2856C262.124 15.2539 262.163 15.2246 262.2 15.1999C263.74 14.1504 265.231 13.0513 266.742 11.9375L266.747 11.9331L266.753 11.9287L266.759 11.9243C267.401 11.4512 268.046 10.9756 268.7 10.5C269.6 9.8999 269.2 9.5 268.5 9.19995C267.686 8.87426 266.805 8.61474 265.966 8.36767L265.921 8.35449L265.826 8.32641C265.682 8.28393 265.54 8.24194 265.4 8.19995C265.215 8.13061 265.025 8.0664 264.831 8.00415C264.729 7.97119 264.626 7.93896 264.523 7.90649ZM561.728 67.7461C544.842 67.4832 529.57 91.8469 522.761 114.479C510.119 143.646 494.272 160.724 468.561 160.323C450.099 160.035 439.337 149.315 439.651 129.158C439.821 118.231 443.594 105.854 448.145 91.9802C451.341 92.407 453.599 92.6306 456.425 92.6746C488.451 93.1736 525.66 75.4753 526.153 43.8262C526.385 28.9434 518.645 17.7053 503.203 17.0879C476.461 16.106 454.215 53.0691 443.196 83.0466C427.613 79.4121 416.833 69.8225 417.094 53.0559C417.256 42.6946 422.359 29.5837 429.259 22.154C430.024 21.4121 430.227 20.4731 430.242 19.5312C430.28 17.0823 428.419 15.5457 426.347 15.5134C425.217 15.4958 424.081 15.855 423.312 16.7852C414.865 26.8289 409.376 40.499 409.176 53.3096C408.877 72.5249 421.108 85.7175 440.253 90.5383C435.511 104.597 431.918 117.543 431.739 129.034C431.375 152.395 443.947 167.854 468.438 168.235C490.528 168.579 506.513 157.649 519.067 138.368C519.594 148.483 524.397 156.294 534.154 156.446C542.254 156.572 550.249 151.42 557.949 140.988C557.805 150.219 562.223 156.883 571.266 157.024C581.726 157.187 589.742 148.491 596.087 138.115C599.533 149.383 610.244 157.631 622.945 157.829C641.972 158.126 657.245 145.362 657.939 125.022C657.948 114.369 654.506 107.961 647.878 95.6235C646.533 93.1206 645.057 90.3735 643.452 87.2976C649.395 80.7952 654.234 72.5793 654.351 65.0439C654.06 59.5747 650.925 55.1919 645.461 55.1067C637.738 54.9866 631.58 63.1816 631.427 72.9778C631.36 77.3108 632.426 81.4729 634.059 85.4553C631.763 87.6809 629.847 89.7236 627.546 92.3259C626.969 93.0708 626.577 94.0068 626.565 94.7602C626.548 95.8906 626.904 97.2153 627.834 97.9834C628.576 98.7488 629.704 98.9548 630.645 98.9695C631.776 98.9871 632.915 98.4394 633.683 97.5093C634.837 96.0198 636.179 94.5332 637.518 93.2351C647.23 110.911 649.971 116.418 650.03 124.71C649.409 140.34 638.327 150.155 623.068 149.917C612.142 149.747 602.66 141.496 602.839 130.005C603.772 118.525 610.689 109.964 621.05 110.126C625.948 110.202 630.584 114.985 630.861 121.396C630.826 123.657 632.495 125.379 634.756 125.414C637.016 125.449 638.738 123.78 638.774 121.52C638.558 111.152 630.781 102.363 620.985 102.211C611.597 102.064 604.334 106.265 599.855 113.548C599.551 113.874 599.283 114.255 599.06 114.683L598.863 115.245L598.813 115.352L598.56 115.898C598.357 116.307 598.163 116.725 597.977 117.15C591.582 130.866 582.544 149.285 571.389 149.112C567.433 149.05 565.773 146.763 565.861 141.111C565.977 133.677 571.195 119.806 577.375 103.374L577.378 103.367L577.38 103.364C578.089 101.477 578.812 99.5564 579.541 97.6079L589.354 72.5107C590.331 70.2646 588.871 67.227 585.856 67.1799C584.161 67.1536 582.639 68.072 582.051 69.5703C581.921 69.8914 581.789 70.219 581.653 70.553L581.37 71.2485C580.548 73.2712 579.634 75.5207 578.716 77.9978C575.43 71.1631 569.64 67.8694 561.728 67.7461ZM451.088 84.4888C452.592 84.7007 454.287 84.727 455.983 84.7534C483.864 85.188 517.823 70.4539 518.24 43.7029C518.408 32.9646 513.442 25.1616 503.08 25C480.85 24.6538 460.329 59.7595 451.088 84.4888ZM534.089 148.531C549.348 148.768 560.903 120.683 568.738 101.585L573.447 89.5986C573.206 80.927 568.387 75.7642 561.605 75.6584C544.267 75.7651 527.623 116.019 526.956 134.664C526.827 142.953 528.437 148.442 534.089 148.531ZM640.19 78.9558C643.269 74.8582 646.186 69.0623 646.251 64.9177C646.292 62.2803 644.211 62.813 642.298 64.6677C640.002 66.8931 639.384 70.2751 639.343 72.9126C639.31 74.9849 639.658 76.8748 640.19 78.9558ZM719.732 159.337C725.07 159.42 729.771 157.197 733.938 153.62L733.624 154.466C732.838 156.527 733.933 158.805 735.994 159.591C738.057 160.188 740.332 159.281 741.121 157.032L754.026 122.149L754.235 121.705L754.626 120.875L754.823 120.313C754.89 120.124 754.956 119.935 755.015 119.745C757.598 114.487 767.597 96.9011 770.772 92.2964C776.355 84.6577 782.101 78.7173 787.376 78.7996C794.158 78.9053 796.739 82.5256 796.631 89.4961C796.528 96.0896 793.57 104.523 789.435 115.953C789.241 116.327 776.232 153.057 776.035 153.619C775.054 156.054 776.894 158.909 779.72 158.953C781.416 158.979 782.937 158.061 783.529 156.374C783.388 156.645 790.25 137.514 794.21 126.475L796.208 120.907C796.619 119.76 796.876 119.039 796.927 118.896C802.627 103.722 817.706 79.272 828.633 79.4424C836.168 79.5598 838.361 83.928 838.276 89.3911C838.159 96.9138 834.528 106.259 830.802 115.847C826.877 125.948 822.847 136.319 822.71 145.113C822.566 154.344 826.985 161.008 836.216 161.152C846.48 161.312 854.479 152.751 860.795 142.48C862.777 154.15 871.44 161.701 884.667 161.907C895.043 162.069 904.076 158.511 912.199 150.874C911.415 152.957 910.64 155.01 909.877 157.024C909.088 159.273 910.186 161.363 912.247 162.148C914.31 162.746 916.585 161.839 917.374 159.59L931.143 122.495C937.42 106.576 952.134 81.3667 963.626 81.5457C970.973 81.6602 973.354 86.0312 973.27 91.4946C973.144 99.531 969.466 108.826 965.716 118.3C961.818 128.148 957.844 138.191 957.703 147.217C957.56 156.448 961.978 163.112 971.021 163.253C978.923 163.376 985.385 159.246 992.288 149.434C992.735 157.634 997.477 163.665 1005.95 163.797C1017.48 163.977 1026.12 157.021 1033.94 145.461C1033.84 156.257 1037.89 164.294 1050.03 164.484C1059.08 164.625 1068.81 157.051 1075.92 147.74C1080.01 151.195 1084.89 152.967 1090.16 153.049C1101.46 153.225 1110.45 144.698 1119.04 125.8C1120.21 123.18 1118.18 120.322 1115.36 120.278C1113.85 120.254 1112.33 121.173 1111.74 122.671C1104.9 138.204 1098.2 145.26 1090.28 145.137C1085.95 145.07 1082.77 143.701 1080.74 141.031C1089.63 126.472 1095.95 108.104 1096.13 96.2353C1096.31 84.9321 1090.04 76.355 1077.61 75.7844C1068.19 75.6377 1058.86 82.0874 1050.74 95.1514C1046.87 101.263 1041.64 110.335 1038.05 121.404C1028.9 140.638 1019.62 156.096 1006.07 155.885C1002.31 155.826 1000.09 152.965 1000.17 147.878C1000.25 142.415 1002.84 133.788 1010.9 112.055C1013.43 105.276 1015.48 99.8301 1017.1 95.4966C1019.66 88.6921 1021.19 84.6299 1021.92 82.4539L1037.36 82.6946C1039.62 82.73 1041.35 81.0608 1041.38 78.8003C1041.41 76.728 1039.75 74.8176 1037.49 74.7825L1024.86 74.5857C1026.24 71.0269 1034.7 48.1697 1034.12 49.2913C1035.1 46.8569 1033.26 44.0017 1030.43 43.9578C1028.73 43.9314 1027.21 44.8498 1026.62 46.5364C1026.42 47.2871 1016.78 73.7061 1016.39 74.4536L1001.88 74.2275C999.621 74.1924 997.896 76.0498 997.864 78.1221C997.829 80.3828 999.498 82.1047 1001.76 82.1399L1013.63 82.3247L1003.6 109.114C1002.13 112.724 1000.72 116.387 999.44 119.969C999.382 120.038 999.325 120.11 999.27 120.183C999.179 120.306 999.091 120.435 999.009 120.569C998.97 120.631 998.933 120.695 998.896 120.76C998.869 120.81 998.842 120.86 998.815 120.911C986.936 145.6 979.998 155.478 971.144 155.34C967.188 155.279 965.531 152.803 965.616 147.34C965.725 140.35 969.283 131.05 972.97 121.414C976.934 111.053 981.046 100.304 981.182 91.6179C981.337 81.6333 977.313 73.8447 963.749 73.6335C957.532 73.5366 951.637 77.0249 946.085 82.5915L947.651 78.8472C948.631 76.4128 946.791 73.5576 943.966 73.5137C942.27 73.4873 940.748 74.4058 940.157 76.0923C936.237 86.3459 931.078 100.23 925.604 114.958L924.13 118.926C923.916 119.171 923.73 119.443 923.576 119.739C912.648 143.877 900.421 154.615 884.979 153.998C873.681 153.445 867.756 146.757 868.3 136.025C868.55 132.072 869.171 128.501 870.566 123.624C891.556 118.863 919.814 107.244 920.125 87.2747C920.266 78.2319 913.749 73.2312 904.329 73.0845C886.687 72.8096 870.322 97.2393 863.566 119.379C853.154 142.564 845.495 153.383 836.339 153.24C832.383 153.178 830.726 150.703 830.811 145.239C830.934 137.362 834.506 128.245 838.177 118.879C842.056 108.982 846.044 98.8057 846.188 89.5144C846.344 79.5298 842.32 71.7415 828.756 71.53C819.902 71.3921 810.159 79.9082 804.561 88.489C804.716 78.5044 798.802 71.0632 787.499 70.8872C781.094 70.7873 774.998 75.0264 769.435 81.3464C770.03 79.4714 770.618 77.9731 771.398 76.2893C772.378 73.855 770.538 70.9998 767.712 70.9558C766.017 70.9294 764.495 71.8479 763.904 73.5344C758.898 86.9973 753.845 100.459 748.793 113.922L748.764 114L747.835 116.474C747.724 116.639 747.621 116.813 747.526 116.996L747.329 117.558L747.279 117.665C740.847 131.505 731.505 151.606 719.855 151.425C715.899 151.363 714.239 149.076 714.327 143.425C714.443 135.989 719.662 122.115 725.844 105.679C726.268 104.553 726.697 103.414 727.128 102.265L727.557 101.122L728.007 99.9211L737.819 74.824C738.797 72.5779 737.336 69.5403 734.322 69.4934C732.627 69.4668 731.105 70.3852 730.516 71.8835C730.422 72.1182 730.326 72.3562 730.228 72.5977L729.834 73.5666C729.012 75.5884 728.099 77.8359 727.182 80.3113C723.896 73.4763 718.106 70.1829 710.194 70.0596C687.587 69.7073 667.873 113.494 667.489 138.172C667.312 149.476 672.07 158.594 682.62 158.759C690.72 158.885 698.715 153.734 706.415 143.301C706.271 152.532 710.689 159.196 719.732 159.337ZM682.554 150.844C697.814 151.082 709.369 122.997 717.204 103.898L721.913 91.9121C721.671 83.2402 716.853 78.0774 710.071 77.9719C692.733 78.0786 676.089 118.333 675.422 136.977C675.292 145.266 676.903 150.756 682.554 150.844ZM873.721 114.628C889.433 109.974 911.995 101.092 912.212 87.1514C912.292 82.0649 908.35 81.0613 904.206 80.9968C891.207 80.7942 879.975 100.216 873.721 114.628ZM1075.42 119.655C1078.06 119.696 1079.9 122.175 1079.11 124.801C1078.68 125.896 1078.55 126.997 1078.43 128.024L1078.43 128.029C1078.38 128.404 1078.34 128.77 1078.29 129.122C1084.31 117.533 1088.09 104.59 1088.22 95.9238C1088.35 88.0115 1083.7 83.7935 1077.3 83.6938C1070.14 83.5823 1063.25 90.0701 1057.64 99.4043C1052.62 107.429 1042.35 125.547 1042.05 144.951C1041.94 151.733 1044.13 156.478 1050.16 156.572C1057.13 156.68 1065.16 149.268 1071.51 140.51C1069.52 135.58 1070.02 127.297 1071.41 122.608C1071.82 120.73 1073.53 119.626 1075.42 119.655ZM274.3 298.2C292.3 286.2 304.3 269.6 310.8 250.1C311.339 248.141 311.877 246.446 312.381 244.862L312.383 244.856C312.906 243.208 313.392 241.68 313.8 240.1C315.9 231.6 316.9 222.9 316.8 214.2C316.6 189.6 309.8 167 296.2 146.6C281 123.6 260.8 106.7 234.1 98.3999C226.3 96 218.4 94.1999 210.2 93.6999C187.8 92.1999 167.3 97.8 149.3 111.3C131.6 124.6 120.4 142.3 114.7 163.6C112.5 171.8 111.2 180.1 111 188.5C110.3 215.2 117.6 239.6 132.6 261.6C149.2 285.9 171.4 302.7 200.2 310.1C207 311.9 213.9 312.9 221 313.1C240.3 313.7 258.2 309 274.3 298.2ZM147.896 271.001C147.546 270.665 147.183 270.317 147.1 269.9C161.2 270.2 173.9 266 185.9 259.2C196.8 253 206.8 245.6 216 237.1C225.5 228.3 233.3 218.1 239.6 206.8C245 197.1 250.4 187.3 253.7 176.5C257.1 165.6 258.3 154.5 257.8 143.2C257.4 133.8 256.9 124.5 254.7 115.1C256.748 116.124 258.505 117.367 260.219 118.579C260.514 118.788 260.807 118.995 261.1 119.2C274.4 128.7 285.2 140.6 293.5 154.7C305.6 175.2 311.3 197.3 310 221.1C309.6 228.1 308.4 234.9 306.6 241.7C302.6 257 295.2 270.3 284.3 281.7C276 290.2 266.3 296.6 255.3 301C240.9 306.7 226 308.1 210.7 305.9C202 304.6 193.5 302 185.4 298.4C171 292 158.7 282.8 148.1 271.2C148.034 271.134 147.966 271.069 147.897 271.003L147.896 271.001ZM118.9 173.4C119.9 167.5 121.3 161.7 123.1 157.5C129.3 140.8 138.3 127.8 151.1 117.8C166.4 105.7 184 99.8999 203.6 99.8C205.339 99.8 207.079 99.908 208.818 100.016C209.979 100.088 211.14 100.16 212.3 100.2C215.2 100.3 216.8 101.9 218.1 104.1C219.4 106.3 220.3 108.7 220.8 111.2C223.8 125.7 226.3 140.2 226.3 155.1C226.3 163.5 224.7 171.8 221.4 179.5C216.6 190.6 209.9 200.6 202.7 210.3C197.5 217.3 191.8 223.9 184.6 229C175.6 235.4 165.5 239.3 154.7 241.4C149.6 242.4 144.5 243.3 139.3 243.7C137.7 243.8 136.15 243.6 134.6 243.4C133.05 243.2 131.5 243 129.9 243.1C129.175 243.18 128.969 242.677 128.76 242.165C128.709 242.041 128.658 241.917 128.6 241.8C123.4 230.8 120 219.4 118.3 207.4C116.7 196 116.9 184.7 118.9 173.4ZM137.2 257.3L132.7 250.1C146.5 250 159.5 247.8 172.1 242.7C181.4 238.9 189.9 233.8 197 226.6C204.7 218.7 211.2 209.9 217 200.5C220.5 194.8 224 189.1 226.7 183C230.3 175 232 166.6 232.5 157.9C233.1 148.9 232.1 140 230.7 131.1C230.379 129.074 230.094 127.048 229.81 125.025C228.944 118.86 228.082 112.723 226.2 106.7C225.8 105.5 225.3 104.3 224.8 103.1C224.5 102.2 224.7 101.9 225.6 102.2C226.58 102.5 227.564 102.788 228.548 103.076C232.484 104.228 236.42 105.38 240.1 107.3C241.6 108.1 243.2 108.8 244.8 109.4C246.1 109.9 246.8 110.7 247.2 112C249.3 118.2 250.3 124.6 250.8 131.1C251.6 140.7 252.2 150.2 250.9 159.8C249.9 167 248.2 174 245.4 180.7C240.4 193.1 234.1 204.9 226.4 215.8C217.4 228.5 205.8 238.6 193 247.4C188 250.9 182.7 254 177.2 256.7C169.8 260.3 162 262.2 153.9 263.4C151.164 263.77 148.592 263.21 146.022 262.65C145.117 262.453 144.212 262.256 143.3 262.1C140.2 261.6 138.7 259.7 137.2 257.3ZM256.4 85.3C258.3 83.5 260.1 82 262.3 81C264 80.1999 265.7 80.1999 267.1 81.5C268.5 82.6999 268.5 84.3 267.8 86C266.7 88.8999 264.8 91.1999 262.4 93.1999C260.2 95 257.9 96.6999 255.6 98.3999C253.9 99.6001 252.6 99.1001 250.8 98.3C246.621 96.3332 246.403 92.8218 246.186 89.3066C246.161 88.9072 246.137 88.5078 246.106 88.1106C246.077 87.7378 246.044 87.3669 246 87C245.73 85.02 246.189 83.04 246.648 81.0601C246.699 80.8401 246.75 80.6201 246.8 80.3999C247.2 78.6001 248.9 77 250.5 76.8999C252.1 76.6999 253.8 77.8 254.8 79.6999C255.375 80.7219 255.623 81.907 255.884 83.1511L255.885 83.154C256.032 83.8567 256.183 84.5784 256.4 85.3ZM414.1 323.875C412.644 325.667 409.564 327.067 404.86 328.075L403.516 340.339C415.052 339.555 423.508 339.163 428.884 339.163C435.38 339.163 444.116 339.387 455.092 339.835L456.604 327.571L455.596 326.227C453.916 326.563 451.788 326.731 449.212 326.731C446.748 326.731 445.124 326.003 444.34 324.547C443.556 322.979 443.164 319.843 443.164 315.139C443.164 296.771 443.78 275.659 445.012 251.803C445.236 248.555 445.964 246.371 447.196 245.251C448.54 244.131 451.284 243.291 455.428 242.731L456.436 229.963L445.348 230.467C438.516 230.803 433.532 230.971 430.396 230.971L405.532 230.803L404.188 241.891L405.364 243.739C407.156 243.515 408.892 243.403 410.572 243.403C412.924 243.403 414.492 244.019 415.276 245.251C416.172 246.371 416.62 248.667 416.62 252.139L416.452 314.131C416.452 318.835 415.668 322.083 414.1 323.875ZM531.395 266.587C532.067 267.371 532.459 268.883 532.572 271.123L533.076 298.843H531.228C529.436 296.379 525.459 290.723 519.3 281.875C513.14 273.027 507.092 263.843 501.156 254.323C500.147 254.435 498.076 254.547 494.939 254.659C491.803 254.771 488.443 254.827 484.859 254.827C481.052 254.827 477.187 254.771 473.267 254.659C469.348 254.435 466.828 254.267 465.708 254.155L464.868 263.899L466.212 265.579C470.692 266.139 473.604 266.923 474.947 267.931C476.291 268.939 476.963 270.899 476.963 273.811L475.284 321.019C475.171 323.595 474.5 325.555 473.267 326.899C472.036 328.131 470.076 328.915 467.387 329.251L466.043 340.171C467.276 340.059 469.963 339.835 474.108 339.499C478.364 339.275 482.284 339.163 485.868 339.163C489.676 339.163 493.595 339.219 497.628 339.331C501.771 339.555 504.628 339.667 506.196 339.667L507.708 329.251L506.531 328.243C506.196 328.243 505.468 328.299 504.348 328.411C503.339 328.523 502.388 328.579 501.491 328.579C499.475 328.579 498.076 328.131 497.291 327.235C496.619 326.339 496.284 324.659 496.284 322.195L495.947 294.643H497.796C499.588 296.995 503.619 302.651 509.891 311.611C516.163 320.459 522.995 330.315 530.388 341.179L552.563 339.499L554.412 273.475C554.523 270.899 555.196 268.995 556.427 267.763C557.659 266.531 559.788 265.691 562.812 265.243L563.483 254.323C562.251 254.435 559.843 254.547 556.26 254.659C552.788 254.771 549.036 254.827 545.004 254.827C540.859 254.827 536.66 254.771 532.404 254.659C528.26 254.435 525.404 254.323 523.836 254.323L522.995 264.235L523.667 265.411H528.036C529.715 265.411 530.836 265.803 531.395 266.587ZM582.468 235.675L588.516 244.075L591.708 244.915C594.956 242.451 601.34 238.139 610.86 231.979C619.708 237.579 626.147 241.891 630.179 244.915L633.372 244.075L639.419 235.675C634.268 230.859 628.947 225.763 623.459 220.387C617.971 214.899 614.444 211.315 612.875 209.635H609.011C607.444 211.315 603.916 214.899 598.427 220.387C593.052 225.875 587.731 230.971 582.468 235.675ZM578.436 326.059C577.204 327.627 574.795 328.691 571.211 329.251L569.867 340.507C571.436 340.395 575.02 340.115 580.62 339.667C586.219 339.331 591.875 339.163 597.587 339.163C605.875 339.163 614.612 339.275 623.795 339.499C632.979 339.723 638.916 339.891 641.604 340.003L643.62 338.155C644.068 332.443 644.684 327.011 645.468 321.859C646.364 316.707 646.979 313.403 647.315 311.947L645.971 310.099L630.179 311.275C629.508 315.531 628.612 318.611 627.491 320.515C626.483 322.419 624.86 323.707 622.62 324.379C620.379 325.051 616.907 325.387 612.204 325.387C609.964 325.387 608.34 325.219 607.332 324.883C606.323 324.435 605.652 323.707 605.315 322.699C604.979 321.691 604.812 319.955 604.812 317.491C604.812 312.675 604.867 308.363 604.979 304.555C605.763 304.555 607.219 304.443 609.347 304.219C611.476 303.995 613.548 303.883 615.563 303.883C619.147 303.883 622.563 303.939 625.812 304.051C629.172 304.163 631.412 304.219 632.531 304.219L634.548 290.107L633.035 288.427C631.803 288.539 629.62 288.707 626.483 288.931C623.347 289.155 620.379 289.267 617.58 289.267H605.652L606.491 272.971C606.491 271.403 606.827 270.395 607.5 269.947C608.172 269.499 609.739 269.275 612.204 269.275C616.572 269.275 619.763 269.499 621.78 269.947C623.795 270.283 625.139 270.955 625.812 271.963C626.595 272.971 626.988 274.539 626.988 276.667C626.988 277.675 626.931 278.683 626.82 279.691C626.764 280.189 626.723 280.605 626.695 280.938C626.666 281.281 626.652 281.537 626.652 281.707L643.788 280.531C644.011 275.379 644.516 270.227 645.3 265.075C646.083 259.811 646.644 256.451 646.979 254.995L645.468 253.315C635.835 254.323 621.555 254.827 602.627 254.827C596.132 254.827 589.971 254.771 584.147 254.659C578.436 254.547 574.572 254.491 572.555 254.491L571.379 264.067L572.724 265.747L576.587 265.579C578.156 265.579 579.219 266.083 579.78 267.091C580.34 267.987 580.62 269.835 580.62 272.635L580.451 317.827C580.451 321.635 579.78 324.379 578.436 326.059ZM671.284 339.499C675.204 340.283 679.516 340.675 684.22 340.675C697.1 340.675 707.236 338.267 714.628 333.451C722.132 328.523 725.884 321.915 725.884 313.627C725.884 307.355 723.756 302.483 719.5 299.011C715.244 295.427 709.364 292.067 701.86 288.931C695.476 286.355 690.884 284.283 688.084 282.715C685.396 281.147 684.052 279.075 684.052 276.499C684.052 274.483 685.004 272.859 686.908 271.627C688.924 270.395 691.444 269.779 694.468 269.779C701.972 269.779 705.724 272.971 705.724 279.355L705.556 282.043L707.236 283.051L721.348 282.043C721.796 277.115 722.412 272.411 723.196 267.931C724.092 263.451 724.708 260.595 725.044 259.363L723.532 256.843C722.972 256.619 721.572 256.227 719.332 255.667C717.092 255.107 714.068 254.603 710.26 254.155C706.452 253.595 702.364 253.315 697.996 253.315C689.932 253.315 682.82 254.491 676.66 256.843C670.5 259.083 665.684 262.275 662.212 266.419C658.852 270.563 657.172 275.323 657.172 280.699C657.172 286.635 659.076 291.451 662.884 295.147C666.692 298.731 671.956 301.979 678.676 304.891L683.548 306.907C688.812 309.035 692.62 310.883 694.972 312.451C697.436 314.019 698.668 315.979 698.668 318.331C698.668 320.347 697.66 321.971 695.644 323.203C693.74 324.323 691.052 324.883 687.58 324.883C682.988 324.883 679.628 323.763 677.5 321.523C675.484 319.283 674.476 315.531 674.476 310.267L659.02 311.443C658.908 315.251 658.46 319.451 657.676 324.043C657.004 328.635 656.5 331.659 656.164 333.115L657.676 335.299C658.236 335.635 659.636 336.251 661.876 337.147C664.228 337.931 667.364 338.715 671.284 339.499ZM887.821 289.267V288.427L883.957 278.851H882.781C882.445 279.187 881.549 279.803 880.093 280.699C878.637 281.595 877.013 282.491 875.221 283.387C873.429 284.283 871.861 284.731 870.517 284.731C869.285 284.731 864.413 284.283 855.901 283.387C854.221 283.275 851.253 282.995 846.997 282.547C842.741 282.099 839.829 281.875 838.261 281.875L835.237 282.715L822.133 294.979V295.651L826.165 305.227H827.341C827.677 304.891 828.349 304.331 829.357 303.547C830.477 302.651 831.765 301.811 833.221 301.027C834.677 300.131 835.965 299.683 837.085 299.683L843.133 300.187C840.445 307.131 836.357 312.619 830.869 316.651C825.381 320.683 818.885 322.699 811.381 322.699C805.221 322.699 799.901 321.579 795.421 319.339C791.053 317.099 787.805 313.907 785.677 309.763C801.357 301.139 815.301 291.395 827.509 280.531C839.829 269.667 849.237 260.147 855.733 251.971C858.981 247.939 860.605 245.195 860.605 243.739C860.605 242.395 860.101 240.267 859.093 237.355C858.085 234.443 857.021 231.755 855.901 229.291C854.893 226.715 854.221 225.035 853.885 224.251H847.333L844.981 226.603C842.629 235.115 839.325 242.731 835.069 249.451C830.813 256.171 825.101 262.891 817.933 269.611L816.925 268.939C816.983 268.821 817.058 268.626 817.147 268.354C817.229 268.108 817.322 267.799 817.429 267.427C817.765 266.531 817.933 265.691 817.933 264.907C817.933 261.659 816.421 258.971 813.397 256.843C810.485 254.603 806.677 253.483 801.973 253.483C795.477 253.483 789.093 255.611 782.821 259.867C776.661 264.123 771.621 269.891 767.701 277.171C763.781 284.451 761.821 292.291 761.821 300.691C761.821 308.531 763.557 315.531 767.029 321.691C770.501 327.851 775.373 332.667 781.645 336.139C788.029 339.611 795.365 341.347 803.653 341.347C811.493 341.347 819.221 339.667 826.837 336.307C834.453 332.835 841.229 328.075 847.165 322.027C853.213 315.979 857.861 309.203 861.109 301.699L871.693 302.539L875.053 301.363L887.821 289.267ZM781.309 299.179C780.973 297.499 780.805 295.427 780.805 292.963C780.805 287.251 782.149 282.659 784.837 279.187C787.637 275.715 791.053 273.979 795.085 273.979C796.877 273.979 798.221 274.483 799.117 275.491C800.125 276.499 800.629 277.899 800.629 279.691C800.629 282.939 799.285 285.963 796.597 288.763C793.909 291.451 788.813 294.923 781.309 299.179ZM906.777 356.299L906.441 358.315L911.985 365.707C924.641 361.899 933.825 356.635 939.537 349.915C945.361 343.195 948.273 334.347 948.273 323.371C948.273 313.851 948.497 301.643 948.945 286.747C949.393 271.851 949.841 260.203 950.289 251.803C950.513 248.555 951.073 246.427 951.969 245.419C952.977 244.411 955.217 243.515 958.689 242.731L959.865 229.627C958.185 229.739 954.489 229.963 948.777 230.299C943.065 230.635 937.409 230.803 931.809 230.803L909.801 230.971L908.457 242.059L909.633 243.907C910.081 243.907 910.921 243.851 912.153 243.739C913.497 243.627 914.841 243.571 916.185 243.571C918.537 243.571 920.049 244.131 920.721 245.251C921.505 246.371 921.897 248.667 921.897 252.139V317.827C921.897 325.107 921.449 330.931 920.553 335.299C919.769 339.667 918.313 343.419 916.185 346.555C914.057 349.691 910.921 352.939 906.777 356.299ZM976.658 329.755C983.826 337.035 993.962 340.675 1007.07 340.675C1021.29 340.675 1032.43 336.643 1040.5 328.579C1048.56 320.403 1052.59 309.091 1052.59 294.643C1052.59 281.091 1049.07 270.843 1042.01 263.899C1035.07 256.843 1024.93 253.315 1011.6 253.315C997.155 253.315 985.955 257.291 978.002 265.243C970.051 273.083 966.074 284.227 966.074 298.675C966.074 312.115 969.603 322.475 976.658 329.755ZM1020.67 320.011C1018.32 323.707 1014.74 325.555 1009.92 325.555C1004.55 325.555 1000.63 322.979 998.163 317.827C995.811 312.675 994.635 304.275 994.635 292.627C994.635 284.675 995.754 278.907 997.995 275.323C1000.23 271.627 1003.71 269.779 1008.41 269.779C1013.9 269.779 1017.87 272.355 1020.34 277.507C1022.91 282.547 1024.2 290.891 1024.2 302.539C1024.2 310.491 1023.03 316.315 1020.67 320.011ZM1070.04 234.499V236.515L1078.1 243.907H1080.29C1080.62 243.459 1081.41 242.451 1082.64 240.883C1083.98 239.315 1085.44 237.859 1087.01 236.515C1088.69 235.059 1090.14 234.331 1091.37 234.331C1092.72 234.331 1094.85 234.779 1097.76 235.675C1100.78 236.459 1102.57 236.907 1103.13 237.019C1110.08 239.035 1114.61 240.043 1116.74 240.043L1119.6 239.371L1132.87 221.395V219.211L1124.97 211.819H1122.79C1122.45 212.267 1121.61 213.275 1120.27 214.843C1119.04 216.411 1117.58 217.923 1115.9 219.379C1114.22 220.723 1112.82 221.395 1111.7 221.395C1110.25 221.395 1106.27 220.499 1099.77 218.707C1099.1 218.595 1097.09 218.091 1093.73 217.195C1090.48 216.299 1087.96 215.851 1086.17 215.851L1083.48 216.523L1070.04 234.499ZM1102.46 328.579L1101.79 338.995L1102.8 340.003C1104.25 339.891 1107.56 339.723 1112.71 339.499C1117.86 339.387 1123.07 339.331 1128.33 339.331L1147.15 339.499L1148.16 329.923L1147.32 328.747C1144.85 328.523 1142.95 327.739 1141.61 326.395C1140.26 325.051 1139.14 322.867 1138.25 319.843C1136.12 313.123 1132.87 301.923 1128.5 286.243C1124.25 270.451 1121.45 259.923 1120.1 254.659L1118.25 253.315L1086.33 255.499L1063.32 321.187C1062.53 323.427 1061.53 325.163 1060.29 326.395C1059.06 327.515 1057.55 328.299 1055.76 328.747L1054.75 339.331H1072.56C1077.26 339.331 1081.63 339.387 1085.66 339.499C1089.69 339.611 1092.38 339.723 1093.73 339.835L1094.9 329.587L1093.73 328.411H1089.36C1087.34 328.411 1086 328.243 1085.33 327.907C1084.77 327.459 1084.49 326.619 1084.49 325.387C1084.49 324.715 1084.65 323.651 1084.99 322.195L1087.01 315.475C1087.9 315.475 1089.36 315.363 1091.37 315.139C1094.73 314.915 1097.2 314.803 1098.77 314.803C1103.92 314.803 1107.73 314.859 1110.19 314.971L1111.7 321.355C1111.81 321.803 1111.93 322.307 1112.04 322.867C1112.11 323.164 1112.16 323.462 1112.19 323.759C1112.2 323.91 1112.21 324.06 1112.21 324.211C1112.21 325.331 1111.98 326.171 1111.53 326.731C1111.2 327.179 1110.41 327.515 1109.18 327.739C1107.95 327.963 1105.71 328.243 1102.46 328.579ZM1107.33 300.019C1103.75 300.243 1101.01 300.355 1099.1 300.355H1091.21L1098.93 275.491H1101.45L1107.33 300.019ZM1161.06 329.755C1168.23 337.035 1178.37 340.675 1191.47 340.675C1205.7 340.675 1216.84 336.643 1224.9 328.579C1232.97 320.403 1237 309.091 1237 294.643C1237 281.091 1233.47 270.843 1226.42 263.899C1219.47 256.843 1209.34 253.315 1196.01 253.315C1181.56 253.315 1170.36 257.291 1162.41 265.243C1154.46 273.083 1150.48 284.227 1150.48 298.675C1150.48 312.115 1154.01 322.475 1161.06 329.755ZM1205.08 320.011C1202.73 323.707 1199.14 325.555 1194.33 325.555C1188.95 325.555 1185.03 322.979 1182.57 317.827C1180.22 312.675 1179.04 304.275 1179.04 292.627C1179.04 284.675 1180.16 278.907 1182.4 275.323C1184.64 271.627 1188.11 269.779 1192.82 269.779C1198.3 269.779 1202.28 272.355 1204.74 277.507C1207.32 282.547 1208.61 290.891 1208.61 302.539C1208.61 310.491 1207.43 316.315 1205.08 320.011Z" fill="white"/>
</svg>
