<?xml version="1.0" encoding="utf-8"?>
<!-- Generator: Adobe Illustrator 23.0.1, SVG Export Plug-In . SVG Version: 6.00 Build 0)  -->
<svg version="1.1" id="Layer_1" xmlns="http://www.w3.org/2000/svg" xmlns:xlink="http://www.w3.org/1999/xlink" x="0px" y="0px"
	 viewBox="0 0 1196.8 512" style="enable-background:new 0 0 1196.8 512;" xml:space="preserve">
<style type="text/css">
	.st0{fill:#ffffff;}
	.st1{font-family:'Nickainley-Normal';}
	.st2{font-size:188.4067px;}
	.st3{font-family:'Kirsty';}
	.st4{font-size:137px;}
</style>
<g>
	<text transform="matrix(0.9999 1.557998e-02 -1.557998e-02 0.9999 447.5934 254.8804)" class="st0 st1 st2">Casamento</text>
</g>
<g id="WOMqUp.tif">
	<g>
		<path fill="#ffffff" d="M313.4,104.4c0.4,0.2,0.8,0.5,1.3,0.7c6.4,1.9,12.6,4.5,18.9,6.8c6.5,2.4,12.8,5.1,19.1,8.1c2.6,1.2,5.3,2.4,8.1,3.2
			c3.3,1,4.9,3.1,5.4,6.5c1,7,2.2,13.9,3.3,20.9c0.1,0.6,0.3,1.2,0.4,1.8c0.2,1.1,0.5,1.6,1.8,1.7c4.7,0.3,6.9,4.1,5.4,9.1
			c-2.1,6.7-6.2,12.3-11.3,16.9c-7.2,6.4-15.6,10.9-24.9,13.5c-0.4,0.1-0.7,0.2-1.1,0.3c-0.1,0-0.2,0.1-0.4,0.3
			c3.3,3.3,6.6,6.5,9.6,10c5.5,6.4,10.4,13.2,14.6,20.5c9.3,16.1,15.2,33.3,17.6,51.7c2,14.9,1.6,29.7-1,44.5
			c-1.6,9-4,17.8-7.3,26.2c-10.3,26-26.7,47.4-50.1,63c-24.2,16.2-50.9,23.2-79.9,20.7c-6.6-0.6-13.1-1.8-19.5-3.4
			c-6-1.5-11.9-3.5-17.5-6c-12.4-5.4-23.7-12.6-33.9-21.7c-9.9-8.9-18.4-19-25.2-30.5c-0.9-1.6-2.5-1.3-3.8-1.5
			c-8.1-1.7-16-4-23.7-7.2c-12.2-4.9-23.3-11.6-33.5-19.9c-11.4-9.4-20.9-20.4-28.4-33.1c-14.1-24-19.5-49.8-16.5-77.3
			c0.8-7.6,2.3-15,4.9-22.2c0.3-0.7,0.5-1.4,0.5-2.2c0.2-0.5,0.3-0.9,0.5-1.4c1.5-2.5,2.1-5.4,3.2-8.1c4-9.6,9.2-18.5,15.5-26.7
			c14.4-18.8,32.6-32.7,54.5-41.6c15.4-6.2,31.3-9.5,47.9-9.6c12.2-0.1,24.1,1.4,35.9,4.5c9.3,2.4,18.1,5.9,26.6,10.3
			c13.6,7.1,25.7,16.3,35.9,27.7c0.2,0.3,0.4,0.6,0.9,0.2c-1.6-2.6-3.4-5-4.5-7.8c-2.3-6.1-4.8-12.2-7-18.4
			c-2.2-6.4-1.4-12.5,3.6-17.5c3.4-3.4,7.6-5.5,11.9-7.5c2.7-1.3,5.5-3,8.8-1.6c0.2,0.1,0.6-0.1,0.9-0.3c3.8-1.6,7.6-3.3,11.5-4.8
			c3.1-1.2,6.2-2.9,9.8-2.5C305.9,101.9,309.6,103.2,313.4,104.4z M273.3,116c-3.4,1.4-6.1,3.1-8.7,5.1c-3.3,2.7-4.2,6.1-3.3,10.1
			c0.5,2.1,1.5,3.9,2.2,5.9c2.8,7.7,5.1,15.6,10.3,22.3c1,1.3,1.8,3.1,0.6,4.7c-1.6,2.3-3.5,3.9-6.9,3.6
			c-21.1-2.4-41.3,1.1-60.6,9.9c-13.1,6-24.8,14.2-35,24.4c-12.1,12.1-21.5,26-28.1,41.9c-3.4,8.1-6.1,16.5-7.9,25.1
			c-2.2,10.6-3.1,21.4-2.7,32.2c1.1,28,9.7,53.3,26.5,75.7c13.3,17.7,30.1,30.9,50.6,39.4c9.9,4.1,20.3,6.9,31,8
			c28.4,2.8,54.6-3.8,78.2-19.7c19.9-13.4,34.5-31.5,44.5-53.2c3.5-7.6,6.1-15.5,8-23.7c1.9-7.8,3.1-15.6,3.6-23.6
			c1.6-26.5-3.9-51.4-16.9-74.6c-4.3-7.6-9.2-14.6-14.9-21.2c-3.6-4.2-7.5-8-11.6-11.7c-2.9-2.6-2.5-5.7,1-7.4
			c1.2-0.6,2.5-1,3.9-1.3c8.9-2,16.7-6.1,23.6-12c4.4-3.7,7.8-8.3,9.7-13.8c0.1-0.4,0.5-0.9,0.1-1.2c-0.4-0.4-0.8,0-1.2,0.2
			c-2.2,1-4.3,2.2-6.3,3.6c-5.8,4-11.2,8.6-17.3,12.2c-4.4,2.6-9.1,4.2-14.3,4.1c-5.2,0-9.6-1.8-12.6-6.2c-2.2-3.3-2.8-7.1-2.7-11
			c0.1-7.2,1.5-14.2,3.5-21.1c0.5-1.8,1.4-3.7,1-5.6c-0.4-1.8-0.3-3.1,0.9-4.4c0.6-0.7,0.6-1.5,0.1-2.2c-0.5-0.8-1.4-0.5-2-0.2
			c-1.4,0.5-2.5,1.4-3.5,2.4c-5.4,5.1-9.3,11.2-11.9,18.1c-1.4,3.6-2.7,7.2-4.3,10.6c-2.7,5.8-9.4,8.1-14.6,2.4
			c-4.5-4.8-7.6-10.5-10.2-16.5c-3-6.7-4.9-13.8-4.2-21.3C271.3,122.7,272.1,119.5,273.3,116z M225.5,164.5
			c-7-4.7-14.3-7.9-21.8-10.6c-7.3-2.6-14.8-4.4-22.5-5.2c-30.2-3.4-57.3,3.9-81,23.2c-12.2,10-21.3,22.5-27.3,37.1
			c-3,7.4-5.2,15.1-6.2,23c-2.2,17.6,0.1,34.5,7.2,50.6c7.2,16.4,18.1,29.9,32.4,40.6c7.5,5.6,15.6,10.2,24.3,13.6
			c0.5,0.2,1.2,0.7,1.7,0.3c0.6-0.5,0-1.2-0.2-1.7c-3-10.4-4.6-21-5.2-31.8c-0.7-14.4,0.7-28.5,4.3-42.4c1.4-5.4,3-10.7,5.1-15.9
			c2.6-6.4,5.4-12.7,8.9-18.7c8.3-14.5,18.8-27.1,31.8-37.6c10.5-8.5,21.9-15.3,34.5-20C216,167.3,220.5,166,225.5,164.5z
			 M142.1,360.9c-2.5-5.2-4.7-10.1-6.5-15.1c-0.2-0.5-0.5-0.8-1-0.9c-7.1-2.3-14-5.3-20.4-9.1c-22.9-13.4-39.5-32.3-48.5-57.4
			c-7.7-21.5-7.8-43.1-1-64.8c1.9-6.1,4.6-11.9,7.7-17.4c9.5-17.1,22.8-30.4,39.8-40c13.9-7.9,28.9-12.6,44.8-14.2
			c14.1-1.4,27.9-0.1,41.5,3.6c9.7,2.6,18.9,6.5,27.6,11.6c2.4,1.4,5,2.5,6.8,4.7c0.7,0.8,1.2,1,2.1,0.9c5.4-1.1,10.9-1.5,16.4-1.7
			c2-0.1,4-0.1,6-0.2c-0.1-0.3-0.1-0.4-0.2-0.4c-13.6-13.7-29.9-23.3-48.1-29.4c-6.8-2.3-13.9-3.9-21.1-4.9
			c-23.2-3.3-45.6-0.4-67.2,8.6c-14.7,6.1-27.7,15-39.1,26.2c-11.9,11.8-20.9,25.6-27.1,41.2c-2.7,6.8-4.7,13.8-6,21
			c-2.2,11.7-2.6,23.4-1.2,35.2c2,16.5,7.3,31.9,15.8,46.2c5.3,8.9,11.6,16.9,19,24.2c14.5,14.2,31.6,24.1,50.9,30
			C135.8,359.6,138.7,360.6,142.1,360.9z M323,167.5c1.2-0.3,1.9-1.1,2.8-1.7c6.4-4.2,12.5-8.9,18.2-13.9c0.7-0.6,1.7-1.3,0.1-2.2
			c-5.2-2.8-10.4-5.6-15.8-8.1c-1.3-0.6-1.7-0.3-2,0.9c-1.3,4.9-2.5,9.8-3.2,14.8C322.7,160.7,322.3,164,323,167.5z M296.2,154.5
			c1-3.6,2.5-6.8,3.9-10c1.9-4.4,4.6-8.3,7.5-12.1c0.6-0.7,1.1-1.3-0.3-1.7c-6.2-2-12.2-4.5-18.2-6.8c-0.5-0.2-1-0.6-1.6-0.2
			C289.9,134,292.4,144.3,296.2,154.5z M326.3,173c0.9,0.7,1.5,1.1,2.3,1.3c4.6,0.8,8.8-0.2,12.9-2.4c6.7-3.6,12.3-8.7,18.6-12.9
			c0.9-0.6,0.8-0.9-0.1-1.3c-2.5-1.3-4.9-2.6-7.3-3.9c-0.9-0.5-1.4-0.2-2.1,0.5c-2.4,2.5-5.1,4.7-7.8,6.9
			C337.6,165.4,332.1,169.2,326.3,173z M290.7,159.3c-0.4-1.7-0.7-3.5-1.3-5.2c-3.1-9.2-5.5-18.6-7.6-28.1c-0.4-1.8-0.8-3.6-1.2-5.4
			c-0.1-0.7-0.6-1-1.3-1.1c-0.5-0.1-0.8,0.3-0.8,0.8c-0.5,3-1.3,5.9-1.2,8.9c0.2,8.6,3.7,16.1,7.8,23.3
			C286.5,155.1,288.2,157.6,290.7,159.3z M363.1,152.1c-0.9-5.9-1.8-11.4-2.7-16.9c-0.4-2.6-0.3-2.5-2.7-1.1
			c-4.9,2.8-9.4,6.4-15.7,7.7C349.4,145.3,356.1,148.6,363.1,152.1z M338.2,139.4c-1.3-2-1.6-3.9-1.8-5.9c-0.3-2.8-0.7-5.6-0.9-8.5
			c-0.1-1.8-0.8-1.8-2.2-1c-1.5,0.9-3.1,1.8-4.7,2.6c-0.9,0.5-1.1,0.9-0.7,1.8c0.5,1.2,0.7,2.6,0.4,3.8c-0.4,2,0.6,2.9,2.3,3.5
			C333.1,137,335.5,138.2,338.2,139.4z M355.3,128.1c-4.8-2.1-9.2-4.1-13.9-6.2c0.9,4.1,1.1,8,1.5,11.9c0.1,1,0.6,1.1,1.4,0.7
			C348.1,132.7,351.5,130.4,355.3,128.1z M302.8,122.6c3.5,1.5,7.2,2.4,10.8,3.3c1.3,0.3,2.8-1.1,2.4-2.1c-0.9-2.3-1.9-4.5-2.8-6.8
			c-0.5-1.2-1.1-1.1-1.9-0.5C308.5,118.4,305.7,120.5,302.8,122.6z M282.8,114.3c3.8,1.7,7.3,3.2,10.8,4.8c0.7,0.3,0.9,0,0.9-0.6
			c0.2-2.8,0.4-5.5,0.6-8.3c0.1-1.2-0.5-1.2-1.4-0.9c-1.2,0.5-2.4,0.9-3.6,1.5C287.8,112,285.2,112.6,282.8,114.3z M318.5,113.4
			c1.3,3,2.4,5.7,3.5,8.4c0.2,0.5,0.5,1,1.1,0.7c2.8-1.3,5.5-2.8,8.4-4.7C327.1,116.3,323,114.9,318.5,113.4z M305.4,108.2
			C305.4,108.2,305.4,108.2,305.4,108.2c-0.8-0.3-1.7-0.5-2.5-0.9c-1.1-0.5-1.6-0.1-1.6,1.1c-0.1,2-0.2,4.1-0.3,6.1
			c0,0.4-0.1,0.9,0.1,1c0.4,0.4,0.8-0.1,1.1-0.3c2.2-1.5,4.3-3.1,6.5-4.7c0.9-0.6,0.5-1-0.2-1.3
			C307.5,108.8,306.4,108.5,305.4,108.2z"/>
		<path fill="#ffffff" d="M350.8,350.1c-6.5,19.5-18.5,36.1-36.5,48.1c-16.1,10.8-34,15.5-53.3,14.9c-7.1-0.2-14-1.2-20.8-3
			c-28.8-7.4-51-24.2-67.6-48.5c-15-22-22.3-46.4-21.6-73.1c0.2-8.4,1.5-16.7,3.7-24.9c5.7-21.3,16.9-39,34.6-52.3
			c18-13.5,38.5-19.1,60.9-17.6c8.2,0.5,16.1,2.3,23.9,4.7c26.7,8.3,46.9,25.2,62.1,48.2c13.6,20.4,20.4,43,20.6,67.6
			c0.1,8.7-0.9,17.4-3,25.9C353,343.2,351.9,346.1,350.8,350.1z M187.1,369.9c0.1,0.5,0.6,0.9,1,1.3c10.6,11.6,22.9,20.8,37.3,27.2
			c8.1,3.6,16.6,6.2,25.3,7.5c15.3,2.2,30.2,0.8,44.6-4.9c11-4.4,20.7-10.8,29-19.3c10.9-11.4,18.3-24.7,22.3-40
			c1.8-6.8,3-13.6,3.4-20.6c1.3-23.8-4.4-45.9-16.5-66.4c-8.3-14.1-19.1-26-32.4-35.5c-2-1.4-4-2.9-6.4-4.1
			c2.2,9.4,2.7,18.7,3.1,28.1c0.5,11.3-0.7,22.4-4.1,33.3c-3.3,10.8-8.7,20.6-14.1,30.3c-6.3,11.3-14.1,21.5-23.6,30.3
			c-9.2,8.5-19.2,15.9-30.1,22.1C213.9,366,201.2,370.2,187.1,369.9z M163.1,257.5c-1.8,4.2-3.2,10-4.2,15.9
			c-2,11.3-2.2,22.6-0.6,34c1.7,12,5.1,23.4,10.3,34.4c0.3,0.6,0.4,1.4,1.3,1.3c3.2-0.2,6.2,0.8,9.4,0.6c5.2-0.4,10.3-1.3,15.4-2.3
			c10.8-2.1,20.9-6,29.9-12.4c7.2-5.1,12.9-11.7,18.1-18.7c7.2-9.7,13.9-19.7,18.7-30.8c3.3-7.7,4.9-16,4.9-24.4
			c0-14.9-2.5-29.4-5.5-43.9c-0.5-2.5-1.4-4.9-2.7-7.1c-1.3-2.2-2.9-3.8-5.8-3.9c-2.9-0.1-5.8-0.4-8.7-0.4
			c-19.6,0.1-37.2,5.9-52.5,18C178.3,227.8,169.3,240.8,163.1,257.5z M172.7,350.1c1.5,2.4,3,4.8,4.5,7.2c1.5,2.4,3,4.3,6.1,4.8
			c3.5,0.6,6.9,1.8,10.6,1.3c8.1-1.2,15.9-3.1,23.3-6.7c5.5-2.7,10.8-5.8,15.8-9.3c12.8-8.8,24.4-18.9,33.4-31.6
			c7.7-10.9,14-22.7,19-35.1c2.8-6.7,4.5-13.7,5.5-20.9c1.3-9.6,0.7-19.1-0.1-28.7c-0.5-6.5-1.5-12.9-3.6-19.1
			c-0.4-1.3-1.1-2.1-2.4-2.6c-1.6-0.6-3.2-1.3-4.7-2.1c-4.6-2.4-9.6-3.6-14.5-5.1c-0.9-0.3-1.1,0-0.8,0.9c0.5,1.2,1,2.4,1.4,3.6
			c2.5,8,3.2,16.2,4.5,24.4c1.4,8.9,2.4,17.8,1.8,26.8c-0.5,8.7-2.2,17.1-5.8,25.1c-2.7,6.1-6.2,11.8-9.7,17.5
			c-5.8,9.4-12.3,18.2-20,26.1c-7.1,7.2-15.6,12.3-24.9,16.1C199.5,347.8,186.5,350,172.7,350.1z"/>
		<path fill="#ffffff" d="M296.4,185.3c1.9-1.8,3.7-3.3,5.9-4.3c1.7-0.8,3.4-0.8,4.8,0.5c1.4,1.2,1.4,2.8,0.7,4.5c-1.1,2.9-3,5.2-5.4,7.2
			c-2.2,1.8-4.5,3.5-6.8,5.2c-1.7,1.2-3,0.7-4.8-0.1c-5.1-2.4-4.3-7.1-4.8-11.3c-0.3-2.2,0.3-4.4,0.8-6.6c0.4-1.8,2.1-3.4,3.7-3.5
			c1.6-0.2,3.3,0.9,4.3,2.8C295.7,181.3,295.8,183.3,296.4,185.3z"/>
	</g>
</g>
<text fill="#ffffff" transform="matrix(1 0 0 1 438.98 405.1631)" class="st3 st4">Inês &amp; João</text>
</svg>
