<?xml version="1.0" encoding="utf-8"?>
<!-- Generator: Adobe Illustrator 23.0.1, SVG Export Plug-In . SVG Version: 6.00 Build 0)  -->
<svg version="1.1" id="Layer_1" xmlns="http://www.w3.org/2000/svg" xmlns:xlink="http://www.w3.org/1999/xlink" x="0px" y="0px"
	 viewBox="0 0 512 512" style="enable-background:new 0 0 512 512;" xml:space="preserve">
<g id="pCL8Wh.tif">
	<g>
		<path d="M85.4,368.8c0.3-0.6,0.2-1.2,0.2-1.7c0-4.9-0.1-9.9,0-14.8c0.3-7.9,0.1-15.8,0.3-23.6c0.2-6.2,0.2-12.5,0.6-18.7
			c0.3-6.1,0.7-12.3,1.2-18.4c0.7-8.1,2.1-16.1,3.3-24.1c0.7-4.7,1.1-9.4,1.7-14.1c0.3-2.1,0.9-4.2,1.7-6.1c0.6-1.3,1.5-2,3-2.3
			c1.8-0.4,3.5-1.3,5.4-1.7c6-1.4,12.1-2.3,18.2-3.2c2.4-0.4,4.8-0.5,7.1-1.1c0.8-0.2,1.2-0.5,1.3-1.4c0.3-2.7,0.4-5.4,1.1-8
			c0.4-1.4,0.8-2.8,2.4-3.3c0.4-0.1,0.5-0.4,0.6-0.7c0.5-1.7,1.7-2.7,3.2-3.5c3.2-1.7,6.7-2.6,10.3-3.1c3.9-0.6,7.9-0.9,11.9-0.9
			c6.2,0,12.2,1.4,18.1,2.9c4.5,1.2,8.9,2.5,12.5,5.6c0.2,0.2,0.5,0.2,0.7,0.3c1.9,0.4,2.1,0.7,2.4,2.7c0.3,1.6,0.5,3.1-0.2,4.8
			c-0.4,0.9,0.1,1.7,1.4,1.5c5.7-0.6,11.5,0,17.2-0.7c2.1-0.3,4.2-0.2,6.4-0.3c1.9-0.1,3.9-0.2,5.8-0.3c1.1-0.1,1.6-0.5,1.6-1.7
			c-0.1-4.7-0.8-9.4-0.6-14.1c0-0.6-0.3-1-0.8-1.3c-3.4-1.6-6.2-4-9.2-6.2c-2.2-1.6-2.7-4-2.9-6.4c-0.5-5.4-0.6-10.8-0.4-16.2
			c0.3-6.7-0.1-13.5-0.4-20.2c-0.1-2-0.4-4-0.1-5.9c0.2-1.7,1.1-3,2.5-4c2.7-2,5.8-3.1,8.8-4.5c8.4-4.1,16.9-8.1,25.3-12.2
			c1.6-0.8,3.1-1,4.3,0.6c0.3,0.4,0.8,0.4,1.2,0.4c8.8,0,17.6-0.2,26.3-0.5c0.2,0,0.5,0,0.7,0c8.6-0.1,17.3-0.1,25.9-0.3
			c11-0.2,22-0.4,33-0.6c4.8-0.1,9.5-0.1,14.3-0.2c1.2,0,2.3-0.2,3.5-0.2c2.3,0,3.3,0.9,3.3,3.2c0.1,9.5,0.4,18.9,0.6,28.4
			c0.1,8.1,0.3,16.2,0.5,24.3c0.2,7.1,0.4,14.3,0.5,21.4c0,2.2-0.8,3-3,3.3c-2.6,0.4-5.2,0.1-7.8,0.3c-6.6,0.4-13.2,0.9-19.7,1
			c-6,0.1-11.9,0.3-17.9,0.4c-10.7,0.1-21.4,0.6-32.1,0.9c-4.8,0.1-9.6-0.1-14.4,0.4c-1.1,0.1-1.5,0.4-1.5,1.5
			c0.1,1.2,0.1,2.4,0,3.7c-0.1,1.1,0.3,1.6,1.4,1.5c3.1-0.2,6.2-0.6,9.3-0.6c3.2-0.1,6.5-0.5,9.7-0.7c5.5-0.4,11-0.7,16.5-1
			c2.3-0.1,4.5-0.1,6.8-0.3c4.2-0.2,8.5-0.2,12.8-0.3c7.1-0.2,14.3-0.1,21.4-0.3c5.2-0.2,10.3-0.2,15.5-0.1
			c5.1,0.1,10.1,0.2,15.2,0.5c5.5,0.4,11,0.7,16.4,1.8c5.3,1.1,9,4.1,12.1,8.3c2.4,3.4,4.8,6.9,7.4,10.2c0.3,0.4,0.6,0.8,1.1,0.9
			c4.4,0.5,6.8,3.4,8.4,7.2c1.5,3.3,2.1,6.9,2.7,10.5c1.2,6.9,2,13.9,2.2,21c0.1,2.3,0.2,4.6,0.2,6.9c0.2,12.1,0.4,24.2,0.6,36.2
			c0,1.7,0.2,3.3,0.2,5c0.1,10.8,0.5,21.6,0.3,32.5c-0.1,7.1-0.3,14.1-0.6,21.2c-0.2,3.3-0.1,6.6-0.2,9.9
			c-0.1,6.1-0.2,12.1-0.3,18.2c-0.2,7.5-0.6,14.9-1.1,22.3c-0.3,4.3,0,8.7-0.4,13c-0.3,2.8-0.7,5.5-2.1,7.9c-2,3.6-5.4,4.7-9.2,5.2
			c-4.1,0.5-8.2,0.6-12.3,0.9c-5.1,0.4-10.2,0.9-15.3,1.5c-4,0.5-8,0.8-12,1.2c-2.6,0.3-5.3,0.6-7.9,0.8c-0.5,0.1-0.8,0.4-1.1,0.8
			c-7.4,9.3-16.3,16.6-27,21.8c-7.4,3.6-15.3,6-23.5,7.1c-5.4,0.7-10.7,0.9-16.1,0.5c-12.3-1.1-23.9-4.8-34.5-11.2
			c-5.4-3.3-10.5-7.1-14.8-11.7c-0.3-0.3-0.5-0.6-1-0.5c-5.3,0.4-10.5,0.8-15.8,1.2c-4.3,0.3-8.6,0.8-12.9,1.1
			c-5.2,0.4-10.4,0.9-15.6,1.3c-2.8,0.2-5.7,0.5-8.5,0.6c-7.2,0.2-14.5,0.3-21.7,0.3c-6.5-0.1-13.1-0.5-19.6-0.8
			c-5.2-0.3-10.5-0.5-15.7-1.1c-5.9-0.6-11.8-1-17.4-3.3c-2.1-0.9-4-2.3-6.1-3.3c-4.5-2.1-8.9-4.5-13.2-7c-3.9-2.3-7.4-5.2-10.2-8.8
			c-2-2.5-3-5.2-2.4-8.5c0.2-1,0-2.2-0.1-3.2c-0.4-4.1-0.6-8.3-0.5-12.5c0-0.4-0.1-0.9-0.2-1.3c0-4.5,0-9.1,0-13.6
			c0.2-0.5,0.2-1,0.2-1.5c0-7.9,0-15.9,0-23.8c0-0.5,0-1.1-0.2-1.6C85.4,383.6,85.4,376.2,85.4,368.8z M181,336.4
			c7.7,0.2,15.3-0.4,22.9-0.3c4.5,0,9-0.1,13.5,0.5c1.1,0.2,2.2,0.4,3.1-0.8c1.9-2.5,4.3-4.7,6.6-6.8c5.3-5,11.2-9.1,18-11.9
			c8.2-3.4,17-4.7,25.8-5c5.2-0.2,10.4-0.2,15.6,0.2c6,0.4,11.8,1.4,17.6,3.1c9.3,2.8,17.9,6.8,25.2,13.3c0.5,0.5,1.1,0.5,1.7,0.5
			c3.1-0.1,6.2-0.2,9.2-0.3c14.1-0.1,28.2-0.1,42.4-0.5c4.7-0.1,9.5-0.1,14.2-0.4c6.9-0.3,13.9-1.1,20.8-1.3
			c2.1-0.1,2.2-0.2,1.9-2.2c-0.1-0.5-0.1-1-0.1-1.5c-0.1-5.5-0.1-11-0.2-16.4c-0.2-10.3-0.2-20.6-1.4-30.9
			c-0.6-5.1-1.3-10.3-2.7-15.3c-0.6-1.9-1.3-3.8-2.7-5.3c-0.7-0.8-1.4-1.4-2.6-0.7c-0.6,0.3-1.3,0.2-1.8-0.3
			c-0.7-0.7-1.5-0.6-2.4-0.5c-4.2,0.3-8.5,0.8-12.7,1c-4.2,0.2-8.5,0.1-12.8,0.3c-6,0.2-11.9,0-17.9,0.2c-8,0.3-16-0.4-24-0.2
			c-0.8,0-1.5,0-2.3,0c-5.6-0.5-11.3-0.5-17-0.4c-6.5,0.1-13,0.1-19.5,0.3c-9.2,0.3-18.4-0.1-27.6-0.4c-7.5-0.3-14.9,0.2-22.4,0.3
			c-2,0-4,0.1-6,0.2c-5.4,0.3-10.8,0.7-16.2,1c-3.8,0.2-7.7,0.3-11.5,0.6c-6.8,0.4-13.5,0.9-20.3,1.3c-5.5,0.3-10.9,0.3-16.4,0.6
			c-1.9,0.1-3.9,0.1-5.8,0.3c-4,0.3-8.1,0.7-12.1,1c-4.2,0.4-8.4,0.6-12.5,1.2c-5.9,0.8-11.9,1.7-17.8,2.7c-3.8,0.6-7.5,1.4-11,3.1
			c-3.7,1.8-5.8,4.6-5.5,8.9c0.1,1.6,0.2,3.2,0.3,4.9c0.1,8,0.1,15.9-0.3,23.9c-0.1,2.2-0.1,4.3-0.3,6.5c-0.3,5.7-0.7,11.4-1,17.2
			c-0.2,2.9-0.2,5.9-0.4,8.8c-0.1,0.9,0.3,1,1,1c1.2-0.1,2.3-0.2,3.5-0.2c6.2-0.3,12.5,0.4,18.7,0.1c8.2-0.4,16.4-0.6,24.7-0.9
			C167.3,336.4,174.2,336.1,181,336.4z M241.6,472.4c-0.1-0.3-0.2-0.5-0.3-0.6c-3.3-3.8-6-8-8.6-12.3c-0.5-0.9-1.1-1.6-2.3-1.6
			c-0.5,0-1-0.3-1.4-0.7c-1.3-1.3-2.7-2.6-3.9-4c-5-6-9.4-12.4-13.8-18.8c-3.9-5.8-6.2-12.4-8.3-19.1c-2.6-8.3-3.9-16.8-3.8-25.5
			c0-4.6,0.4-9.1,1.2-13.6c1.6-8.4,4.1-16.5,8.4-23.9c2-3.5,4.2-7,6.6-10.2c0.2-0.3,0.6-0.5,0.4-0.9c-0.2-0.3-0.6-0.3-0.9-0.3
			c-2,0.1-4-0.3-6-0.3c-9.7,0-19.4,0.3-29.2,0.5c-3.6,0.1-7.1-0.2-10.7,0c-5.1,0.2-10.2,0.2-15.3,0.4c-2.9,0.1-5.8,0.2-8.7,0.3
			c-7,0.2-14,0.7-21,0.3c-3.2-0.2-6.4-0.1-9.6,0c-2.3,0.1-2.4,0.3-2.4,2.6c0,3.9-0.3,7.9-0.5,11.8c-0.3,5.5-0.6,10.9-0.5,16.4
			c0.1,11.3-0.4,22.5-0.2,33.8c0.2,8.3,0.3,16.5,0.7,24.8c0.1,1.6,0.2,3.2,0.3,4.9c0.3,5.1,0.7,10.2,1,15.3
			c0.3,4.1,0.5,8.2,1.4,12.2c1,4.6,3.4,8.1,8.5,9.1c4.9,0.9,9.9,1.7,14.9,2.1c3.4,0.2,6.8,0.3,10.1,0.6c6.4,0.6,12.9,0.9,19.3,1
			c11.1,0.2,22.2,0.2,33.2-0.7c3.3-0.3,6.6-0.3,9.9-0.6c5.2-0.5,10.3-1.1,15.5-1.6C231,473.1,236.2,472.8,241.6,472.4z M333.9,333.8
			c0.3,0.3,0.6,0.4,0.8,0.6c6.7,6.1,12,13.2,15.9,21.4c0.2,0.5,0.6,0.8,0.9,1.1c3.1,2.8,6,5.7,8.6,8.8c6.8,8,11.9,16.9,15.2,26.9
			c3.4,10.1,5,20.4,4.4,31c-0.2,3.9-0.6,7.7-1.3,11.6c-1.9,10.3-5.6,19.9-11.2,28.8c-0.2,0.3-0.6,0.6-0.4,1c0.2,0.4,0.7,0.2,1.1,0.2
			c2.2-0.2,4.3-0.5,6.4-0.7c5.7-0.6,11.5-1.1,17.2-1.7c4.9-0.6,9.9-0.7,14.9-1c2-0.1,4-0.3,6-0.9c2-0.5,3.3-1.8,4-3.7
			c0.7-2,0.9-4.2,1-6.3c0.2-6.7,0.4-13.5,0.8-20.2c0.4-7.2,0.7-14.5,0.8-21.7c0.1-8.3,0.2-16.6,0.5-24.8c0.2-5.2,0.4-10.5,0.4-15.7
			c-0.1-8.5,0.1-16.9-0.1-25.4c0-3.6-0.3-7.1-0.2-10.7c0-0.7-0.2-1.1-1-1.1c-1.5,0-3-0.1-4.5,0.1c-6.1,0.6-12.2,1-18.2,1.3
			c-6.3,0.3-12.7,0.4-19,0.5c-6.2,0.1-12.5,0.1-18.7,0.2c-7.4,0.2-14.8,0.1-22.1,0.1C335.5,333.3,334.8,333.2,333.9,333.8z
			 M226.5,415.7c0,7.9,0.6,13.2,1.6,18.4c2.9,13.9,8.9,26.2,18.4,36.8c7.1,7.8,15.4,14,25.1,18.4c13.7,6.2,28.1,8.1,42.9,5.4
			c17.5-3.2,31.9-11.8,43.2-25.5c11-13.3,16.5-28.7,17.5-45.8c0.3-6.2-0.2-12.4-1.4-18.5c-3.9-19.2-13.4-35.1-28.9-47.2
			c-12-9.4-25.8-14.5-41-15.4c-5.9-0.4-11.8,0.1-17.7,1.3c-17.9,3.6-32.5,12.7-43.6,27C231.8,384.5,226.7,400.6,226.5,415.7z
			 M97.6,251.4c-0.3,1.2-0.6,2.2-0.7,3.2c-0.4,3.7-0.7,7.4-1.2,11c-1,7-2.2,13.9-3,20.9c-0.8,6.4-1.1,12.9-1.5,19.3
			c-0.3,4.9-0.4,9.8-0.5,14.8c-0.1,5.1-0.2,10.2-0.3,15.3c-0.2,9.1,0,18.1-0.2,27.2c-0.1,7.9-0.4,15.8-0.2,23.8
			c0.3,10.6,0.1,21.3,0.1,31.9c0,7.5-0.1,15,0.3,22.5c0.2,2.8,0.5,5.7,0.8,8.5c0.1,1.1,1.2,2,1,3.2c-0.1,0.8,0.2,1.4,0.6,1.8
			c1.1,1.2,2.3,2.3,3.5,3.4c3.9,3.3,8.4,5.6,12.9,8c0.3,0.2,0.6,0.5,1,0.2c-0.6-2.2-1-4.4-1.2-6.6c-0.5-5.9-1-11.8-1.4-17.7
			c-0.3-4.6-0.6-9.2-0.8-13.8c-0.3-6.3-0.5-12.7-0.5-19c0-9.6-0.1-19.2,0.2-28.8c0.2-9.1,0.4-18.2,0.9-27.3
			c0.3-4.7,0.3-9.5,0.6-14.2c0.2-4.8,0.4-9.6,0.8-14.3c0.3-4.3,0.3-8.6,0.6-12.9c0.5-7.6,0.8-15.2,1-22.8c0.1-3.9-0.1-7.7-0.8-11.6
			c-0.7-3.8,0.3-7.7,2.8-11c0.5-0.7,0.6-1-0.2-1.7c-2.7-2.1-5.3-4.2-7.8-6.5C101.9,256.2,99.8,254,97.6,251.4z M341.7,349.3
			c-0.1-0.2-0.2-0.4-0.3-0.6c-3.8-5.5-8.4-10.3-13.7-14.3c-9.9-7.5-21.2-11.6-33.6-12.5c-9-0.6-17.9,0.5-26.5,3.4
			c-15.3,5.1-28,14.2-37.8,26.9c-13.3,17.2-19.6,36.7-17.7,58.6c0.6,6.9,2.2,13.4,4.7,19.8c0.6,1.6,1.4,3.1,2.1,4.9
			c0.2-0.7-0.4-1.1,0.2-1.7c1.6,6.5,5.2,11.8,9.2,16.9c0-0.4-0.2-0.8-0.3-1.2c-5.3-13-7-26.5-5.7-40.4c0.9-9.1,3.3-17.8,7.3-26.1
			c7.7-16.3,19.3-28.7,35.3-37c13.4-6.9,27.7-9.7,42.8-8.2c7.8,0.8,15.4,2.7,22.6,5.8C334.2,345.3,337.9,347.3,341.7,349.3z
			 M403.9,248.8c-2.4-3.2-4.6-6.2-6.8-9.3c-2.7-3.9-6.6-5.4-11.1-6c-4.4-0.7-8.9-1-13.3-1.2c-7.4-0.4-14.8-0.7-22.2-0.5
			c-7.4,0.2-14.8,0.1-22.1,0.4c-7,0.3-14.1,0.3-21.2,0.6c-5.3,0.2-10.6,0.5-15.8,0.8c-6.1,0.3-12.1,1-18.2,1.2
			c-2.3,0.1-4.5,0.4-6.7,0.5c-1.2,0.1-1.8,0.6-1.6,1.9c0.2,1.9,0.1,3.9,0.4,5.8c0.3,1.9,0,3.7,0.3,5.5c0.1,0.8,0.4,1.3,1.4,1.2
			c6.5-0.1,12.9,0.1,19.4,0.2c9,0.1,17.9-0.1,26.9-0.2c11.1-0.2,22.2,0.3,33.3,0.5c15,0.2,30,0.1,44.9-0.5
			C395.5,249.5,399.6,249.3,403.9,248.8z M260.3,146.9c-3.8-0.2-7.2,0.1-10.5,0.2c-1,0-1.2,0.4-1.2,1.3c0,10.2-0.2,20.4-0.5,30.5
			c-0.2,5.5-0.1,10.9-0.2,16.4c-0.1,7.8-0.4,15.6-0.4,23.4c0,1.2,0.3,1.7,1.6,1.6c2.8-0.3,5.6-0.7,8.5-0.8
			c5.8-0.3,11.6-0.4,17.4-0.5c10.3-0.1,20.5-0.5,30.8-0.9c6.8-0.2,13.7-0.2,20.5-0.3c0.3,0,0.5,0,0.8,0c6.9-0.4,13.9-0.4,20.8-1.1
			c2.5-0.2,5-0.1,7.4-0.4c0.9-0.1,1.1-0.3,1.1-1.2c-0.1-8.5-0.3-16.9-0.6-25.4c-0.2-7.9-0.3-15.7-0.5-23.6
			c-0.2-6.5-0.2-12.9-0.3-19.4c0-1.1-0.3-1.5-1.5-1.5c-3.4,0-6.7,0.2-10,0.3c-4.8,0.2-9.7,0.1-14.5,0.2c-10.7,0.3-21.4,0.3-32.2,0.6
			c-4.7,0.1-9.4,0.1-14.1,0.2C275,146.7,267.5,146.7,260.3,146.9z M244,154.8c0-1.8,0-3.5,0-5.3c0-1.7-0.1-1.7-1.5-1
			c-6.6,3.2-13.2,6.4-19.8,9.6c-2.3,1.1-4.6,2.1-6.8,3.4c-0.8,0.5-1.1,1.1-1.1,2c-0.1,4.3,0.5,8.5,0.7,12.7c0.2,5.2,0.7,10.4,1,15.5
			c0.2,3.4,0.5,6.8,0.6,10.1c0.1,2.2,0.6,4,2.9,4.9c0.2,0.1,0.3,0.2,0.4,0.3c3.6,2.9,7.4,5.4,11.7,7.2c3.2,1.3,6.4,2.7,9.6,4
			c1.5,0.6,1.5,0.6,1.5-1.1c0-12.8,0.2-25.6,0.5-38.4C243.8,170.9,243.6,162.8,244,154.8z M207.5,413.2c-0.4-1.8-0.4-3.7-0.5-5.5
			c-0.2-5.1,0-10.3,0.7-15.4c1.3-9.3,3.9-18.1,8-26.5c5.4-11.2,12.7-20.8,22.1-28.9c6.6-5.7,13.9-10.3,21.9-13.7
			c6.4-2.7,13.1-4.6,20-5.5c3.5-0.5,6.9-0.5,10.6-0.8c-2.4-0.2-4.6-0.5-6.7-0.6c-8-0.1-16.1,0-24.1,1.3
			c-11.6,1.9-21.4,7.1-29.9,15.1c-5.5,5.2-10,11.1-14.1,17.4c-7.7,11.8-11.3,24.9-11.6,38.9c-0.1,4.4,0.2,8.9,0.8,13.2
			C205.4,406.1,206.2,409.7,207.5,413.2z M134.5,232.1c-0.5,3.2-0.7,6.2-0.9,9.2c-0.2,3.1,0.3,6.1,0.3,9.2c0,0.6,0.2,1,0.7,1.3
			c1.9,1,3.7,2.3,5.8,3c0.8,0.3,1.6,0.7,2,1.5c0.2,0.5,0.6,0.5,1.1,0.4c3-0.4,6-0.8,9-1.1c3.5-0.4,7.1-0.5,10.7-0.9
			c5.2-0.5,10.3-0.9,15.5-1.1c2.6-0.1,5.2-0.3,7.9-0.2c0.9,0,1.3-0.4,1.3-1.3c0-1-0.1-2.1,0-3.1c0.4-3.6,0.1-7.1,0.2-10.7
			c0-0.9-0.3-0.7-0.9-0.4c-1.2,0.7-2.4,1.3-3.7,1.7c-9.6,3.1-19.5,4.2-29.5,2.9C146.2,241.5,139.4,238.6,134.5,232.1z M161.1,238.5
			c4.5-0.2,9.2-0.5,14-1.4c4.3-0.8,8.5-2.1,12.2-4.6c0.9-0.6,1-1.2,0.2-1.9c-1.8-1.4-3.6-2.8-5.8-3.6c-3.9-1.4-8-2.3-12-3.2
			c-3.8-0.9-7.8-1.3-11.7-1.3c-3.3,0-6.6,0.4-9.8,0.8c-3,0.4-5.9,1.1-8.6,2.4c-1.6,0.7-1.8,1.2-1.3,2.9c0.7,2.7,2.8,4.1,4.9,5.5
			C148.4,237.5,154.5,238.3,161.1,238.5z M242.8,232.8c-0.3,2.9,0.2,6.4,0.3,9.9c0.1,2.2,0,4.3,0.4,6.5c0.1,0.6,0.2,0.9,0.9,0.8
			c4.7-0.2,9.3-0.5,14-0.5c2.7,0,2.5,0.3,2.4-2.4c-0.4-7.4-1-14.8-0.8-22.2c0-0.8-0.3-1.1-1.1-1c-4.5,0.7-9.2,0.3-13.6,1.8
			c-0.4,0.1-0.9,0.1-1.3,0c-1.1-0.4-1.2,0.2-1.2,1C242.8,228.7,242.8,230.4,242.8,232.8z M201.1,239.8c-2.5-0.3-5.1,0.2-7.6,0.2
			c-0.7,0-1,0.2-1,0.9c0,3.7,0.1,7.4-0.3,11.1c-0.1,0.8,0.3,1.1,1.1,1c5.1-0.4,10.2-0.8,15.3-1c4.7-0.2,9.4-0.5,14.1-0.8
			c1-0.1,1.3-0.5,1.4-1.3c0.4-3.5,0.7-7,0.6-10.5c0-0.8-0.4-1.2-1.2-1c-1.3,0.3-2.6,0.2-3.9,0.3C213.5,239,207.3,239.7,201.1,239.8z
			 M135.6,257.9c-1.9-1.1-3.4-2-4.9-2.9c-1-0.6-1.6-1.6-1.5-2.7c0.3-2.6-0.2-5.2-0.2-7.9c0-1-0.3-1.1-1.2-1c-3.5,0.6-7,1.1-10.5,1.6
			c-5,0.7-9.9,1.6-14.7,2.8c-1.5,0.4-1.6,0.6-0.6,1.7c4.3,4.6,8.9,8.8,14,12.6c0.7,0.5,1.3,0.5,2,0.1c1.7-0.9,3.6-1.4,5.5-2
			C127.4,259.1,131.3,258.7,135.6,257.9z M238.3,232.6c0-2.9,0-5.2,0-7.5c0-0.6,0-1.1-0.7-1.4c-2.6-1.1-5.1-2.3-7.6-3.5
			c-1.1-0.5-1.3-0.2-1.3,0.9c0,3.7,0.7,7.4,0.6,11.1c0,1-0.1,2,0.6,2.8c0.4,0.6,0.3,1.3,0,1.9c-0.3,0.6-0.4,1.2-0.4,1.8
			c-0.3,3.7,0,7.4-0.7,11.1c-0.2,1.3,0.6,1.3,1.5,1.2c2.3-0.2,4.7-0.5,7-0.5c1.3,0,1.7-0.5,1.6-1.7
			C238.8,243.2,238,237.6,238.3,232.6z"/>
		<path d="M288.6,102.8c-1.3,0.1-2.2-0.6-2.8-1.6c-0.7-1.1-1.1-2.3-1.6-3.4c-2.4-6.3-5.3-12.4-8.8-18.2c-4-6.6-9.8-11.1-16.5-14.8
			c-3.4-1.8-6.7-3.7-10.1-5.6c-0.9-0.5-1.6-1.1-1.6-2.2c0-1.1,0.6-1.9,1.7-2.2c0.2-0.1,0.5-0.2,0.5-0.4c0.2-1.6,1.5-1.8,2.7-2.3
			c1.4-0.5,2.4-1.8,3.5-2.8c7.7-7.2,14-15.5,18.9-24.8c1.7-3.3,3.5-6.7,5.2-10c0.6-1.1,1.2-2.1,2.4-2.7c1.6-0.7,3.2,0,4,2
			c0.8,1.6,1.4,3.3,2,5c3.2,9.2,8.6,16.7,16.2,22.8c6.7,5.3,14,9.4,21.9,12.7c0.7,0.3,1.4,0.5,2,0.9c2.3,1.2,2.3,3.5,0.1,4.7
			c-2.4,1.4-4.8,2.8-7,4.4c-10,7-17.9,15.8-24.1,26.3c-2.1,3.5-4,7.1-6,10.6C290.6,102.2,289.8,102.7,288.6,102.8z M322.4,58
			c-0.2-0.4-0.4-0.4-0.7-0.5c-4-1.6-7.7-3.8-11.4-6c-6.5-3.9-12.3-8.6-17.2-14.4c-4.2-5-7.2-10.6-9.3-16.7c-0.2-0.6-0.3-1.3-0.9-1.8
			c-0.2,0.4-0.4,0.7-0.6,1c-4.1,8.1-8.4,16.1-14.2,23.2c-3.9,4.8-8.1,9.3-13,13c-1.1,0.9-0.8,1.1,0.1,1.6c2.6,1.4,5.1,2.9,7.7,4.3
			c4.2,2.4,8.2,5.1,11.5,8.8c5,5.5,8.3,12.1,11.4,18.8c1,2.2,1.9,4.4,2.9,6.8C296.7,80.3,307.5,67.3,322.4,58z"/>
		<path d="M323.3,300.3c-0.3-6,0.4-13.2,1.9-20.3c1.4-6.5,5.6-10.7,12.2-12.1c5.8-1.2,11.7-2.1,17.7-2.5c5-0.3,10-0.7,15-1.1
			c3-0.3,6-0.6,9.1-0.5c3.7,0.1,7.4,0.8,10.9,2c3.3,1.2,5.5,3.4,6.6,6.7c1.1,3.2,1.5,6.6,1.7,10c0.2,3.6,0.7,7.2,0.9,10.8
			c0.2,3.2,0.5,6.4,0.2,9.6c-0.3,2.7-0.5,5.5-1.2,8.2c-0.8,3.4-2.8,5.8-5.7,7.5c-4.2,2.4-8.9,3.4-13.6,4.6
			c-5.1,1.3-10.2,2.1-15.5,2.7c-1.5,0.2-3.1,0.3-4.6,0.3c-5.8-0.1-11.5,0.5-17.2,0.3c-3.1-0.1-6.1-0.2-9.2-0.8
			c-5.7-1-8.2-3.7-8.6-9.4c-0.2-2.5-0.4-4.9-0.5-7.4C323.3,306.4,323.3,303.9,323.3,300.3z M347.9,321.7c4.4,0.1,10.2-0.1,15.9-0.6
			c5.3-0.5,10.6-1.5,15.8-2.9c3.7-1,7.4-1.9,10.8-3.8c1.6-0.9,2.7-2.3,3.1-4.1c1.3-4.9,1.5-9.9,1.1-14.9c-0.3-3.6-0.6-7.2-0.9-10.8
			c-0.3-3.4-0.3-6.9-1.5-10.3c-0.8-2.1-2.1-3.6-4.2-4.2c-2.8-0.8-5.6-1.6-8.5-1.5c-2.7,0-5.3,0-8,0.2c-5,0.5-10.1,0.8-15.1,1.1
			c-5.6,0.4-11.2,1.1-16.8,2.2c-6.2,1.2-8.9,3.8-10.1,10c-0.7,3.6-1.3,7.3-1.4,11c-0.1,3.6-0.7,7.2,0.4,10.7c0.1,0.5,0.1,1-0.1,1.5
			c-0.3,0.8-0.3,1.6-0.3,2.4c0.2,3.2,0.5,6.5,0.8,9.7c0.1,1.7,1.1,2.8,2.8,3.2c0.7,0.2,1.5,0.4,2.2,0.5
			C338.1,321.8,342.3,321.6,347.9,321.7z"/>
		<path d="M147.8,272.2c10.2,0.5,18.2,5.9,23.2,15.8c2,4,3,8.4,3,12.8c0,13.2-8.3,25.6-22.5,27.8c-7.7,1.2-14.6-1.1-20.5-6.1
			c-5.5-4.7-8.8-10.7-9.9-17.9c-1.9-11.5,3.4-24.5,15-30C139.4,273,143,272.2,147.8,272.2z M169.3,301.9c-0.2-7.4-2.3-13.3-7-18.2
			c-5.8-6.1-14.6-8.7-22.7-5.7c-10.6,4-15.8,15.5-14.1,25.7c0.9,5.8,3.6,10.7,7.9,14.8c6.2,5.8,15.9,7.4,23.4,3.5
			C165.3,317.7,168.8,310.3,169.3,301.9z"/>
		<path d="M236.1,430.7c0.1-15.5,5.1-29.4,14.5-41.7c9.4-12.4,21.5-21,36.3-25.9c5-1.7,10.2-2.7,15.5-3.1c12.6-1.1,24.6,1,35.7,7.1
			c15,8.3,24.4,20.9,28.6,37.4c1.6,6.2,2,12.6,1.6,19c-1,14-5.9,26.6-14.4,37.7c-9.3,12.2-21.2,20.8-35.8,25.7
			c-5,1.7-10.1,2.7-15.3,3.2c-10.7,1-21.1-0.4-31-4.5c-7.5-3.1-13.9-7.8-19.5-13.6c-8.1-8.4-13-18.4-15.1-29.8
			C236.3,438.4,235.9,434.6,236.1,430.7z M240.6,430.4c0.2,2.1-0.1,3.7,0.2,5.3c0.3,1.6,0.4,3.2,0.6,4.8
			c2.5,14.2,9.2,25.9,21.1,34.5c9.5,6.9,20.2,10.2,31.8,10.7c4.6,0.2,9.2-0.3,13.7-1.2c13.2-2.6,24.6-8.6,34.4-17.7
			c7.2-6.7,12.7-14.7,16.5-23.8c3.3-7.8,4.9-16,4.9-24.4c0-3.9-0.4-7.8-1.3-11.7c-3-13.6-10.1-24.6-21.5-32.6
			c-12-8.4-25.5-11.3-40-9.6c-7.4,0.8-14.4,2.9-21.1,6.1c-9.8,4.7-18,11.3-24.7,19.7C245.8,402.4,240.8,415.8,240.6,430.4z"/>
		<path d="M348.5,187.9c0,3.7,0.2,7.4-0.5,11.1c-1.1,5.6-5.4,9.8-11.2,10.7c-4.3,0.6-8.6,0.1-12.9,0.3c-7.3,0.3-14.5,0.7-21.8,1
			c-2.2,0.1-4.3,0.1-6.5,0.3c-4.1,0.2-8.2,0.1-12.3,0.4c-2.9,0.2-5.9,0.1-8.8,0.4c-4.2,0.3-8.5,0.1-12.7-1c-5.2-1.3-8-4.7-8.1-10.1
			c-0.1-4.3,0.3-8.5,0.7-12.7c0.2-2.6,0.4-5.2,0.6-7.8c0.2-4.1,0.6-8.2,1-12.3c0.4-4.3,0.4-8.7,0.4-13c0-1.6,0.3-3,1.7-4.1
			c0.7-0.5,1.4-1,2.2-1c3.7-0.1,7.5-0.7,11.2-0.1c0,0,0.1,0,0.1,0c6.6,0.1,13.1,0.5,19.7,0.2c8.2-0.4,16.4-0.7,24.7-0.8
			c5.1-0.1,10.1,0.4,15.2,0.5c2.9,0.1,5.8,0,8.6,0.5c4.9,0.9,6.3,2.4,7,7.3c0.8,5.4,1,10.8,1.2,16.2
			C348.1,178.6,348.7,183.2,348.5,187.9z M344,188.4c0.1-5.6-0.6-11-0.7-16.5c-0.1-4.9-0.3-9.8-1.2-14.7c-0.2-1.4-0.9-2.1-2.2-2.3
			c-2.5-0.3-4.9-0.6-7.4-0.6c-2.3,0-4.5,0.1-6.8-0.1c-5.9-0.4-11.8-0.4-17.7-0.3c-7.9,0.1-15.8,1.2-23.7,0.7
			c-4.6-0.3-9.3-0.2-14-0.3c-0.3,0-0.6,0-0.9-0.1c-2.3-0.4-4.5,0.2-6.8,0.2c-1.2,0-1.6,0.6-1.5,1.8c0.2,3.8,0,7.7-0.3,11.5
			c-0.4,4.3-0.8,8.5-1,12.8c-0.2,2.9-0.5,5.8-0.7,8.8c-0.2,3.6-0.7,7.1-0.6,10.7c0.1,3.7,1.2,5.3,4.3,6.2c1.8,0.5,3.7,0.8,5.6,0.9
			c7.2,0.2,14.3-0.3,21.4-0.6c5.1-0.2,10.1-0.3,15.2-0.6c2.2-0.2,4.4-0.1,6.6-0.3c4.1-0.3,8.3-0.5,12.5-0.5c4,0,8,0.3,11.9-0.2
			c4-0.5,7.2-3.5,7.7-7.1C343.9,194.7,344,191.5,344,188.4z"/>
		<path d="M343.9,428.2c0.1,11.8-3.8,22.2-11.4,31.1c-6.4,7.5-14.5,12.5-24.4,14.1c-11.3,1.7-21.3-1.2-29.8-8.9
			c-7.4-6.8-11.6-15.3-12.8-25.1c-1.7-13.7,1.8-26,10.6-36.7c6.5-7.8,14.6-13,24.6-14.6c10.7-1.7,20.5,0.8,28.9,7.8
			c8.3,7,12.6,16.1,14,26.7c0.1,0.9,0.3,1.9,0.2,2.8C343.9,426.4,343.9,427.3,343.9,428.2z M269.7,433.3c-0.1,2.2,0.2,4.3,0.6,6.5
			c1.5,8.8,5.3,16.4,12.2,22.2c7,5.8,15.2,8.1,24.2,6.8c9.7-1.4,17.5-6.3,23.4-13.9c7.5-9.7,10.6-20.8,8.8-33.1
			c-1.3-8.6-5-16.1-11.6-21.9c-7-6.1-15-8.5-24.2-7.5c-7.2,0.8-13.5,3.8-18.8,8.6C274.5,409.6,270,420.6,269.7,433.3z"/>
	</g>
</g>
</svg>
